<svg width="175" height="46" viewBox="0 0 175 46" fill="none" xmlns="http://www.w3.org/2000/svg">
<rect width="175" height="46" rx="23" fill="#2F98D7"/>
<path d="M48.7421 16.4H50.5691L55.1501 29H53.5481L52.6121 26.426H46.6991L45.7721 29H44.1611L48.7421 16.4ZM47.2571 24.914H52.0541L49.6511 18.335L47.2571 24.914ZM58.2893 33.5H56.7773V20H58.2893V21.539C58.5953 21.011 59.0033 20.585 59.5133 20.261C60.0233 19.931 60.6293 19.766 61.3313 19.766C61.9853 19.766 62.5973 19.889 63.1673 20.135C63.7433 20.381 64.2473 20.723 64.6793 21.161C65.1113 21.593 65.4503 22.094 65.6963 22.664C65.9423 23.234 66.0653 23.846 66.0653 24.5C66.0653 25.154 65.9423 25.769 65.6963 26.345C65.4503 26.921 65.1113 27.428 64.6793 27.866C64.2473 28.298 63.7433 28.637 63.1673 28.883C62.5973 29.129 61.9853 29.252 61.3313 29.252C60.6293 29.252 60.0233 29.09 59.5133 28.766C59.0033 28.436 58.5953 28.007 58.2893 27.479V33.5ZM61.3133 21.233C60.7313 21.233 60.2213 21.38 59.7833 21.674C59.3453 21.968 59.0063 22.361 58.7663 22.853C58.5323 23.345 58.4153 23.894 58.4153 24.5C58.4153 25.1 58.5323 25.649 58.7663 26.147C59.0063 26.645 59.3423 27.041 59.7743 27.335C60.2123 27.629 60.7253 27.776 61.3133 27.776C61.8953 27.776 62.4293 27.632 62.9153 27.344C63.4013 27.05 63.7913 26.657 64.0853 26.165C64.3793 25.667 64.5263 25.112 64.5263 24.5C64.5263 23.9 64.3823 23.354 64.0943 22.862C63.8063 22.364 63.4193 21.968 62.9333 21.674C62.4473 21.38 61.9073 21.233 61.3133 21.233ZM69.2623 33.5H67.7503V20H69.2623V21.539C69.5683 21.011 69.9763 20.585 70.4863 20.261C70.9963 19.931 71.6023 19.766 72.3043 19.766C72.9583 19.766 73.5703 19.889 74.1403 20.135C74.7163 20.381 75.2203 20.723 75.6523 21.161C76.0843 21.593 76.4233 22.094 76.6693 22.664C76.9153 23.234 77.0383 23.846 77.0383 24.5C77.0383 25.154 76.9153 25.769 76.6693 26.345C76.4233 26.921 76.0843 27.428 75.6523 27.866C75.2203 28.298 74.7163 28.637 74.1403 28.883C73.5703 29.129 72.9583 29.252 72.3043 29.252C71.6023 29.252 70.9963 29.09 70.4863 28.766C69.9763 28.436 69.5683 28.007 69.2623 27.479V33.5ZM72.2863 21.233C71.7043 21.233 71.1943 21.38 70.7563 21.674C70.3183 21.968 69.9793 22.361 69.7393 22.853C69.5053 23.345 69.3883 23.894 69.3883 24.5C69.3883 25.1 69.5053 25.649 69.7393 26.147C69.9793 26.645 70.3153 27.041 70.7473 27.335C71.1853 27.629 71.6983 27.776 72.2863 27.776C72.8683 27.776 73.4023 27.632 73.8883 27.344C74.3743 27.05 74.7643 26.657 75.0583 26.165C75.3523 25.667 75.4993 25.112 75.4993 24.5C75.4993 23.9 75.3553 23.354 75.0673 22.862C74.7793 22.364 74.3923 21.968 73.9063 21.674C73.4203 21.38 72.8803 21.233 72.2863 21.233ZM78.6354 29V15.5H80.1474V29H78.6354ZM88.3026 20H89.9046L84.9816 33.5H83.3796L85.0086 29L81.7776 20H83.4336L85.7646 26.921L88.3026 20ZM96.3843 29V16.4H98.0223L104.313 26.264V16.4H105.825V29H104.196L97.8963 19.136V29H96.3843ZM112.038 29.234C111.21 29.234 110.454 29.021 109.77 28.595C109.092 28.169 108.549 27.599 108.141 26.885C107.739 26.165 107.538 25.37 107.538 24.5C107.538 23.84 107.655 23.225 107.889 22.655C108.123 22.079 108.444 21.575 108.852 21.143C109.266 20.705 109.746 20.363 110.292 20.117C110.838 19.871 111.42 19.748 112.038 19.748C112.866 19.748 113.619 19.961 114.297 20.387C114.981 20.813 115.524 21.386 115.926 22.106C116.334 22.826 116.538 23.624 116.538 24.5C116.538 25.154 116.421 25.766 116.187 26.336C115.953 26.906 115.629 27.41 115.215 27.848C114.807 28.28 114.33 28.619 113.784 28.865C113.244 29.111 112.662 29.234 112.038 29.234ZM112.038 27.722C112.602 27.722 113.109 27.575 113.559 27.281C114.015 26.981 114.372 26.588 114.63 26.102C114.894 25.61 115.026 25.076 115.026 24.5C115.026 23.912 114.891 23.372 114.621 22.88C114.357 22.388 114 21.995 113.55 21.701C113.1 21.407 112.596 21.26 112.038 21.26C111.474 21.26 110.967 21.41 110.517 21.71C110.067 22.004 109.71 22.397 109.446 22.889C109.182 23.381 109.05 23.918 109.05 24.5C109.05 25.1 109.185 25.646 109.455 26.138C109.725 26.624 110.088 27.011 110.544 27.299C111 27.581 111.498 27.722 112.038 27.722ZM121.826 29H120.296L117.281 20H118.757L121.079 26.867L123.374 20H124.931L127.235 26.867L129.53 20H131.024L128.009 29H126.47L124.139 22.07L121.826 29Z" fill="white"/>
</svg>
