<svg width="20" height="20" viewBox="0 0 20 20" fill="none" xmlns="http://www.w3.org/2000/svg">
<path d="M1.43707 2.26196L4.34442 2.26196L5.38013 12.5596C5.42318 12.8435 5.56737 13.1022 5.78614 13.2882C6.00491 13.4741 6.28351 13.5747 6.57061 13.5715H14.0706C14.3302 13.585 14.5871 13.5132 14.8021 13.3671C15.017 13.2209 15.1783 13.0084 15.2611 12.762L16.8444 8.00006C16.9035 7.82103 16.9191 7.63054 16.8901 7.44427C16.8612 7.258 16.7884 7.08127 16.6778 6.92863C16.5625 6.76634 16.4084 6.63554 16.2295 6.54819C16.0507 6.46085 15.8528 6.41974 15.6539 6.42863H4.76108" stroke="#111111" stroke-linecap="round" stroke-linejoin="round"/>
<path d="M13.8686 17.7381C13.5399 17.7381 13.2734 17.4716 13.2734 17.1428C13.2734 16.8141 13.5399 16.5476 13.8686 16.5476C14.1974 16.5476 14.4639 16.8141 14.4639 17.1428C14.4639 17.4716 14.1974 17.7381 13.8686 17.7381Z" fill="#111111" stroke="#111111" stroke-linecap="round" stroke-linejoin="round"/>
<path d="M6.13035 17.7381C5.80161 17.7381 5.53511 17.4716 5.53511 17.1428C5.53511 16.8141 5.80161 16.5476 6.13035 16.5476C6.45909 16.5476 6.72559 16.8141 6.72559 17.1428C6.72559 17.4716 6.45909 17.7381 6.13035 17.7381Z" fill="#111111" stroke="#111111" stroke-linecap="round" stroke-linejoin="round"/>
</svg>
