<svg width="248" height="515" viewBox="0 0 248 515" fill="none" xmlns="http://www.w3.org/2000/svg">
<rect x="1.26025" y="59.4299" width="1.2602" height="19.7431" fill="url(#paint0_linear_451_3044)"/>
<path d="M0 60.6901C0 59.9941 0.564209 59.4299 1.2602 59.4299V79.173C0.564209 79.173 0 78.6088 0 77.9128V60.6901Z" fill="url(#paint1_linear_451_3044)"/>
<rect x="1.26025" y="103.117" width="1.2602" height="36.9657" fill="url(#paint2_linear_451_3044)"/>
<path d="M0 104.377C0 103.681 0.564209 103.117 1.2602 103.117V140.082C0.564209 140.082 0 139.518 0 138.822V104.377Z" fill="url(#paint3_linear_451_3044)"/>
<rect width="1.2602" height="36.9657" transform="matrix(-1 0 0 1 246.158 103.117)" fill="url(#paint4_linear_451_3044)"/>
<path d="M247.418 104.377C247.418 103.681 246.854 103.117 246.158 103.117V140.082C246.854 140.082 247.418 139.518 247.418 138.822V104.377Z" fill="url(#paint5_linear_451_3044)"/>
<rect x="1.26025" y="149.744" width="1.2602" height="36.9657" fill="url(#paint6_linear_451_3044)"/>
<path d="M0 151.004C0 150.308 0.564209 149.744 1.2602 149.744V186.71C0.564209 186.71 0 186.145 0 185.449V151.004Z" fill="url(#paint7_linear_451_3044)"/>
<rect x="5" y="3" width="237.218" height="509" rx="40" fill="white" stroke="#DDDDDD" stroke-width="6"/>
<path d="M93.6535 74.6937C92.7835 74.6937 91.9705 74.5257 91.2145 74.1897C90.4645 73.8477 89.8075 73.3767 89.2435 72.7767C88.6855 72.1707 88.2475 71.4747 87.9295 70.6887C87.6115 69.8967 87.4525 69.0507 87.4525 68.1507C87.4525 67.2207 87.6175 66.3597 87.9475 65.5677C88.2835 64.7757 88.7395 64.0857 89.3155 63.4977C89.8975 62.9097 90.5605 62.4537 91.3045 62.1297C92.0545 61.7997 92.8465 61.6347 93.6805 61.6347C94.6285 61.6347 95.5315 61.8567 96.3895 62.3007C97.2475 62.7447 97.9855 63.3867 98.6035 64.2267L97.2535 64.9557C96.7915 64.3677 96.2425 63.9177 95.6065 63.6057C94.9765 63.2937 94.3285 63.1377 93.6625 63.1377C93.0265 63.1377 92.4235 63.2667 91.8535 63.5247C91.2895 63.7827 90.7885 64.1427 90.3505 64.6047C89.9185 65.0667 89.5795 65.6007 89.3335 66.2067C89.0875 66.8127 88.9645 67.4697 88.9645 68.1777C88.9645 68.8677 89.0875 69.5157 89.3335 70.1217C89.5795 70.7277 89.9155 71.2617 90.3415 71.7237C90.7735 72.1797 91.2745 72.5367 91.8445 72.7947C92.4145 73.0527 93.0235 73.1817 93.6715 73.1817C94.1875 73.1817 94.6765 73.0947 95.1385 72.9207C95.6065 72.7467 96.0355 72.5007 96.4255 72.1827C96.8215 71.8647 97.1575 71.4897 97.4335 71.0577C97.7155 70.6257 97.9285 70.1517 98.0725 69.6357H94.9675V68.2857H99.8365C99.8305 69.1677 99.6625 69.9957 99.3325 70.7697C99.0085 71.5437 98.5615 72.2247 97.9915 72.8127C97.4275 73.4007 96.7735 73.8627 96.0295 74.1987C95.2915 74.5287 94.4995 74.6937 93.6535 74.6937ZM105.611 74.6937C104.783 74.6937 104.027 74.4807 103.343 74.0547C102.665 73.6287 102.122 73.0587 101.714 72.3447C101.312 71.6247 101.111 70.8297 101.111 69.9597C101.111 69.2997 101.228 68.6847 101.462 68.1147C101.696 67.5387 102.017 67.0347 102.425 66.6027C102.839 66.1647 103.319 65.8227 103.865 65.5767C104.411 65.3307 104.993 65.2077 105.611 65.2077C106.289 65.2077 106.91 65.3457 107.474 65.6217C108.044 65.8917 108.53 66.2697 108.932 66.7557C109.34 67.2417 109.643 67.8057 109.841 68.4477C110.045 69.0897 110.12 69.7767 110.066 70.5087H102.722C102.794 71.0187 102.962 71.4747 103.226 71.8767C103.49 72.2727 103.826 72.5877 104.234 72.8217C104.648 73.0557 105.107 73.1757 105.611 73.1817C106.151 73.1817 106.64 73.0437 107.078 72.7677C107.516 72.4857 107.87 72.1017 108.14 71.6157L109.679 71.9757C109.319 72.7737 108.776 73.4277 108.05 73.9377C107.324 74.4417 106.511 74.6937 105.611 74.6937ZM102.677 69.3207H108.545C108.497 68.8167 108.335 68.3577 108.059 67.9437C107.783 67.5237 107.432 67.1877 107.006 66.9357C106.58 66.6837 106.115 66.5577 105.611 66.5577C105.107 66.5577 104.645 66.6807 104.225 66.9267C103.805 67.1727 103.457 67.5057 103.181 67.9257C102.911 68.3397 102.743 68.8047 102.677 69.3207ZM116.319 66.9717H114.276L114.267 74.4597H112.755L112.764 66.9717H111.216V65.4597H112.764L112.755 62.6337H114.267L114.276 65.4597H116.319V66.9717ZM122.616 74.4597V65.4597H124.128V66.5847C124.446 66.1647 124.848 65.8317 125.334 65.5857C125.82 65.3337 126.348 65.2077 126.918 65.2077C127.266 65.2077 127.602 65.2527 127.926 65.3427L127.314 66.8547C127.068 66.7767 126.828 66.7377 126.594 66.7377C126.144 66.7377 125.73 66.8487 125.352 67.0707C124.98 67.2867 124.683 67.5807 124.461 67.9527C124.239 68.3247 124.128 68.7387 124.128 69.1947V74.4597H122.616ZM132.715 74.6937C131.887 74.6937 131.131 74.4807 130.447 74.0547C129.769 73.6287 129.226 73.0587 128.818 72.3447C128.416 71.6247 128.215 70.8297 128.215 69.9597C128.215 69.2997 128.332 68.6847 128.566 68.1147C128.8 67.5387 129.121 67.0347 129.529 66.6027C129.943 66.1647 130.423 65.8227 130.969 65.5767C131.515 65.3307 132.097 65.2077 132.715 65.2077C133.393 65.2077 134.014 65.3457 134.578 65.6217C135.148 65.8917 135.634 66.2697 136.036 66.7557C136.444 67.2417 136.747 67.8057 136.945 68.4477C137.149 69.0897 137.224 69.7767 137.17 70.5087H129.826C129.898 71.0187 130.066 71.4747 130.33 71.8767C130.594 72.2727 130.93 72.5877 131.338 72.8217C131.752 73.0557 132.211 73.1757 132.715 73.1817C133.255 73.1817 133.744 73.0437 134.182 72.7677C134.62 72.4857 134.974 72.1017 135.244 71.6157L136.783 71.9757C136.423 72.7737 135.88 73.4277 135.154 73.9377C134.428 74.4417 133.615 74.6937 132.715 74.6937ZM129.781 69.3207H135.649C135.601 68.8167 135.439 68.3577 135.163 67.9437C134.887 67.5237 134.536 67.1877 134.11 66.9357C133.684 66.6837 133.219 66.5577 132.715 66.5577C132.211 66.5577 131.749 66.6807 131.329 66.9267C130.909 67.1727 130.561 67.5057 130.285 67.9257C130.015 68.3397 129.847 68.8047 129.781 69.3207ZM146.05 65.4597H147.562V74.4597H146.05L145.987 72.9387C145.705 73.4607 145.315 73.8837 144.817 74.2077C144.325 74.5317 143.737 74.6937 143.053 74.6937C142.393 74.6937 141.775 74.5707 141.199 74.3247C140.623 74.0727 140.113 73.7277 139.669 73.2897C139.231 72.8457 138.889 72.3357 138.643 71.7597C138.397 71.1837 138.274 70.5627 138.274 69.8967C138.274 69.2547 138.394 68.6487 138.634 68.0787C138.874 67.5087 139.207 67.0107 139.633 66.5847C140.065 66.1527 140.563 65.8167 141.127 65.5767C141.691 65.3307 142.297 65.2077 142.945 65.2077C143.653 65.2077 144.274 65.3757 144.808 65.7117C145.342 66.0417 145.774 66.4707 146.104 66.9987L146.05 65.4597ZM143.026 73.2267C143.62 73.2267 144.133 73.0827 144.565 72.7947C145.003 72.5007 145.339 72.1047 145.573 71.6067C145.813 71.1087 145.933 70.5597 145.933 69.9597C145.933 69.3477 145.813 68.7957 145.573 68.3037C145.333 67.8057 144.994 67.4127 144.556 67.1247C144.124 66.8307 143.614 66.6837 143.026 66.6837C142.432 66.6837 141.892 66.8307 141.406 67.1247C140.92 67.4187 140.533 67.8147 140.245 68.3127C139.963 68.8047 139.822 69.3537 139.822 69.9597C139.822 70.5657 139.969 71.1177 140.263 71.6157C140.557 72.1077 140.947 72.5007 141.433 72.7947C141.919 73.0827 142.45 73.2267 143.026 73.2267ZM156.61 60.9597H158.122V74.4597H156.61V72.9297C156.304 73.4577 155.893 73.8837 155.377 74.2077C154.861 74.5317 154.255 74.6937 153.559 74.6937C152.905 74.6937 152.293 74.5707 151.723 74.3247C151.153 74.0787 150.649 73.7397 150.211 73.3077C149.779 72.8697 149.44 72.3657 149.194 71.7957C148.948 71.2257 148.825 70.6137 148.825 69.9597C148.825 69.3057 148.948 68.6937 149.194 68.1237C149.44 67.5477 149.779 67.0437 150.211 66.6117C150.649 66.1737 151.153 65.8317 151.723 65.5857C152.293 65.3397 152.905 65.2167 153.559 65.2167C154.255 65.2167 154.861 65.3787 155.377 65.7027C155.893 66.0267 156.304 66.4527 156.61 66.9807V60.9597ZM153.577 73.2267C154.171 73.2267 154.684 73.0827 155.116 72.7947C155.554 72.5007 155.89 72.1047 156.124 71.6067C156.364 71.1087 156.484 70.5597 156.484 69.9597C156.484 69.3477 156.364 68.7957 156.124 68.3037C155.884 67.8057 155.545 67.4127 155.107 67.1247C154.675 66.8307 154.165 66.6837 153.577 66.6837C152.983 66.6837 152.443 66.8307 151.957 67.1247C151.477 67.4187 151.093 67.8147 150.805 68.3127C150.517 68.8047 150.373 69.3537 150.373 69.9597C150.373 70.5657 150.52 71.1177 150.814 71.6157C151.108 72.1077 151.498 72.5007 151.984 72.7947C152.47 73.0827 153.001 73.2267 153.577 73.2267ZM166.275 65.4597H167.877L162.954 78.9597H161.352L162.981 74.4597L159.75 65.4597H161.406L163.737 72.3807L166.275 65.4597ZM169.672 70.6797V61.8597H170.977V70.6797H169.672ZM170.329 74.6937C170.095 74.6937 169.897 74.6127 169.735 74.4507C169.573 74.2887 169.492 74.0907 169.492 73.8567C169.492 73.6287 169.573 73.4367 169.735 73.2807C169.897 73.1187 170.095 73.0377 170.329 73.0377C170.551 73.0377 170.74 73.1187 170.896 73.2807C171.058 73.4367 171.139 73.6287 171.139 73.8567C171.139 74.0907 171.058 74.2887 170.896 74.4507C170.74 74.6127 170.551 74.6937 170.329 74.6937Z" fill="black"/>
<path d="M45.322 97.8597V101.276H39.33V117.46H35.914V101.276H29.922V97.8597H45.322ZM48.0082 103.46H51.4242V117.46H48.0082V103.46ZM49.7442 101.654C49.2402 101.654 48.8156 101.49 48.4702 101.164C48.1249 100.828 47.9522 100.408 47.9522 99.9037C47.9522 99.409 48.1249 98.9937 48.4702 98.6577C48.8156 98.3217 49.2356 98.1537 49.7302 98.1537C50.2249 98.1537 50.6402 98.3217 50.9762 98.6577C51.3216 98.9937 51.4942 99.409 51.4942 99.9037C51.4942 100.408 51.3262 100.828 50.9902 101.164C50.6542 101.49 50.2389 101.654 49.7442 101.654ZM55.8001 117.46V103.46H59.2161V104.706C59.6921 104.202 60.2614 103.805 60.9241 103.516C61.5868 103.217 62.3008 103.068 63.0661 103.068C64.0368 103.068 64.9281 103.296 65.7401 103.754C66.5614 104.211 67.2148 104.822 67.7001 105.588C68.1948 104.822 68.8481 104.211 69.6601 103.754C70.4721 103.296 71.3634 103.068 72.3341 103.068C73.3608 103.068 74.2894 103.32 75.1201 103.824C75.9601 104.318 76.6274 104.986 77.1221 105.826C77.6261 106.656 77.8781 107.585 77.8781 108.612V117.46H74.4621V109.522C74.4621 108.98 74.3268 108.486 74.0561 108.038C73.7948 107.58 73.4401 107.216 72.9921 106.946C72.5534 106.666 72.0588 106.526 71.5081 106.526C70.9574 106.526 70.4581 106.661 70.0101 106.932C69.5714 107.193 69.2168 107.548 68.9461 107.996C68.6754 108.444 68.5401 108.952 68.5401 109.522V117.46H65.1241V109.522C65.1241 108.952 64.9934 108.444 64.7321 107.996C64.4708 107.548 64.1161 107.193 63.6681 106.932C63.2201 106.661 62.7208 106.526 62.1701 106.526C61.6288 106.526 61.1341 106.666 60.6861 106.946C60.2381 107.216 59.8788 107.58 59.6081 108.038C59.3468 108.486 59.2161 108.98 59.2161 109.522V117.46H55.8001ZM87.6895 117.824C86.4015 117.824 85.2255 117.492 84.1615 116.83C83.1068 116.167 82.2621 115.276 81.6275 114.156C81.0021 113.036 80.6895 111.799 80.6895 110.446C80.6895 109.428 80.8715 108.476 81.2355 107.59C81.5995 106.694 82.0988 105.91 82.7335 105.238C83.3775 104.556 84.1241 104.024 84.9735 103.642C85.8228 103.259 86.7281 103.068 87.6895 103.068C88.7815 103.068 89.7801 103.301 90.6855 103.768C91.6001 104.225 92.3748 104.855 93.0095 105.658C93.6441 106.46 94.1061 107.375 94.3955 108.402C94.6848 109.428 94.7501 110.502 94.5915 111.622H84.3575C84.4881 112.144 84.7028 112.616 85.0015 113.036C85.3001 113.446 85.6781 113.778 86.1355 114.03C86.5928 114.272 87.1108 114.398 87.6895 114.408C88.2868 114.417 88.8281 114.277 89.3135 113.988C89.8081 113.689 90.2188 113.288 90.5455 112.784L94.0315 113.596C93.4621 114.837 92.6128 115.854 91.4835 116.648C90.3541 117.432 89.0895 117.824 87.6895 117.824ZM84.2455 109.06H91.1335C91.0308 108.5 90.8115 107.996 90.4755 107.548C90.1488 107.09 89.7428 106.726 89.2575 106.456C88.7721 106.185 88.2495 106.05 87.6895 106.05C87.1295 106.05 86.6115 106.185 86.1355 106.456C85.6595 106.717 85.2535 107.076 84.9175 107.534C84.5908 107.982 84.3668 108.49 84.2455 109.06ZM113.668 106.876H110.952V117.46H107.536V106.876H105.464V103.46H107.536V99.0637H110.952V103.46H113.668V106.876ZM123.151 117.824C121.863 117.824 120.687 117.492 119.623 116.83C118.568 116.167 117.724 115.28 117.089 114.17C116.464 113.05 116.151 111.813 116.151 110.46C116.151 109.433 116.333 108.476 116.697 107.59C117.061 106.694 117.56 105.91 118.195 105.238C118.839 104.556 119.586 104.024 120.435 103.642C121.284 103.259 122.19 103.068 123.151 103.068C124.439 103.068 125.61 103.399 126.665 104.062C127.729 104.724 128.574 105.616 129.199 106.736C129.834 107.856 130.151 109.097 130.151 110.46C130.151 111.477 129.969 112.429 129.605 113.316C129.241 114.202 128.737 114.986 128.093 115.668C127.458 116.34 126.716 116.867 125.867 117.25C125.027 117.632 124.122 117.824 123.151 117.824ZM123.151 114.408C123.832 114.408 124.444 114.226 124.985 113.862C125.526 113.498 125.951 113.017 126.259 112.42C126.576 111.822 126.735 111.169 126.735 110.46C126.735 109.732 126.572 109.069 126.245 108.472C125.928 107.865 125.494 107.384 124.943 107.03C124.402 106.666 123.804 106.484 123.151 106.484C122.479 106.484 121.872 106.666 121.331 107.03C120.79 107.394 120.36 107.879 120.043 108.486C119.726 109.092 119.567 109.75 119.567 110.46C119.567 111.197 119.73 111.864 120.057 112.462C120.384 113.059 120.818 113.535 121.359 113.89C121.91 114.235 122.507 114.408 123.151 114.408ZM141.626 117.46V97.8597H145.042V114.044H153.204V117.46H141.626ZM162.413 117.824C161.125 117.824 159.949 117.492 158.885 116.83C157.831 116.167 156.986 115.276 156.351 114.156C155.726 113.036 155.413 111.799 155.413 110.446C155.413 109.428 155.595 108.476 155.959 107.59C156.323 106.694 156.823 105.91 157.457 105.238C158.101 104.556 158.848 104.024 159.697 103.642C160.547 103.259 161.452 103.068 162.413 103.068C163.505 103.068 164.504 103.301 165.409 103.768C166.324 104.225 167.099 104.855 167.733 105.658C168.368 106.46 168.83 107.375 169.119 108.402C169.409 109.428 169.474 110.502 169.315 111.622H159.081C159.212 112.144 159.427 112.616 159.725 113.036C160.024 113.446 160.402 113.778 160.859 114.03C161.317 114.272 161.835 114.398 162.413 114.408C163.011 114.417 163.552 114.277 164.037 113.988C164.532 113.689 164.943 113.288 165.269 112.784L168.755 113.596C168.186 114.837 167.337 115.854 166.207 116.648C165.078 117.432 163.813 117.824 162.413 117.824ZM158.969 109.06H165.857C165.755 108.5 165.535 107.996 165.199 107.548C164.873 107.09 164.467 106.726 163.981 106.456C163.496 106.185 162.973 106.05 162.413 106.05C161.853 106.05 161.335 106.185 160.859 106.456C160.383 106.717 159.977 107.076 159.641 107.534C159.315 107.982 159.091 108.49 158.969 109.06ZM183.324 103.46H186.74V117.46H183.324L183.17 115.724C182.787 116.349 182.279 116.858 181.644 117.25C181.019 117.632 180.277 117.824 179.418 117.824C178.382 117.824 177.411 117.628 176.506 117.236C175.601 116.844 174.803 116.302 174.112 115.612C173.431 114.921 172.894 114.123 172.502 113.218C172.119 112.312 171.928 111.342 171.928 110.306C171.928 109.307 172.11 108.369 172.474 107.492C172.847 106.614 173.365 105.844 174.028 105.182C174.691 104.519 175.456 104.001 176.324 103.628C177.192 103.254 178.125 103.068 179.124 103.068C180.048 103.068 180.874 103.273 181.602 103.684C182.339 104.094 182.965 104.617 183.478 105.252L183.324 103.46ZM179.334 114.534C180.062 114.534 180.706 114.352 181.266 113.988C181.826 113.624 182.265 113.134 182.582 112.518C182.899 111.892 183.058 111.206 183.058 110.46C183.058 109.704 182.899 109.018 182.582 108.402C182.265 107.776 181.821 107.282 181.252 106.918C180.692 106.554 180.053 106.372 179.334 106.372C178.615 106.372 177.957 106.558 177.36 106.932C176.772 107.296 176.301 107.786 175.946 108.402C175.601 109.018 175.428 109.704 175.428 110.46C175.428 111.216 175.605 111.902 175.96 112.518C176.315 113.134 176.786 113.624 177.374 113.988C177.971 114.352 178.625 114.534 179.334 114.534ZM190.664 117.46L190.65 103.46H194.066L194.08 104.706C194.556 104.202 195.125 103.805 195.788 103.516C196.45 103.217 197.164 103.068 197.93 103.068C198.443 103.068 198.956 103.142 199.47 103.292L198.126 106.736C197.771 106.596 197.416 106.526 197.062 106.526C196.511 106.526 196.007 106.661 195.55 106.932C195.102 107.193 194.742 107.552 194.472 108.01C194.21 108.458 194.08 108.957 194.08 109.508V117.46H190.664ZM215.039 108.612V117.46H211.623V109.508C211.623 108.957 211.488 108.458 211.217 108.01C210.946 107.552 210.582 107.193 210.125 106.932C209.677 106.661 209.178 106.526 208.627 106.526C208.076 106.526 207.572 106.661 207.115 106.932C206.667 107.193 206.308 107.552 206.037 108.01C205.776 108.458 205.645 108.957 205.645 109.508V117.46H202.229L202.215 103.46H205.631L205.645 104.706C206.121 104.202 206.69 103.805 207.353 103.516C208.016 103.217 208.73 103.068 209.495 103.068C210.512 103.068 211.441 103.32 212.281 103.824C213.121 104.318 213.788 104.986 214.283 105.826C214.787 106.656 215.039 107.585 215.039 108.612Z" fill="black"/>
<rect x="91.9944" y="9.98901" width="62.5897" height="18.4829" rx="9.24144" fill="black"/>
<circle cx="143.242" cy="19.2305" r="3.53059" fill="url(#paint8_linear_451_3044)" stroke="#474747" stroke-width="0.5"/>
<circle cx="143.242" cy="19.2306" r="2.02039" fill="url(#paint9_radial_451_3044)" stroke="black"/>
<defs>
<linearGradient id="paint0_linear_451_3044" x1="1.89035" y1="59.4299" x2="1.89035" y2="79.173" gradientUnits="userSpaceOnUse">
<stop stop-color="#ACACAC"/>
<stop offset="0.489583" stop-color="#D7D7D7"/>
<stop offset="0.96875" stop-color="#ACACAC"/>
</linearGradient>
<linearGradient id="paint1_linear_451_3044" x1="0.630098" y1="59.6493" x2="0.630098" y2="79.173" gradientUnits="userSpaceOnUse">
<stop offset="0.0263387" stop-color="#F3F3F3"/>
<stop offset="0.0804426" stop-color="#BEBEBE"/>
<stop offset="0.586013" stop-color="#D0CFCF"/>
<stop offset="0.926867" stop-color="#FCFCFC"/>
<stop offset="0.982173" stop-color="#E1E1E1"/>
</linearGradient>
<linearGradient id="paint2_linear_451_3044" x1="1.89035" y1="103.117" x2="1.89035" y2="140.082" gradientUnits="userSpaceOnUse">
<stop stop-color="#ACACAC"/>
<stop offset="0.489583" stop-color="#D7D7D7"/>
<stop offset="0.96875" stop-color="#ACACAC"/>
</linearGradient>
<linearGradient id="paint3_linear_451_3044" x1="0.630098" y1="103.527" x2="0.630098" y2="140.082" gradientUnits="userSpaceOnUse">
<stop offset="0.0263387" stop-color="#F3F3F3"/>
<stop offset="0.0804426" stop-color="#BEBEBE"/>
<stop offset="0.586013" stop-color="#D0CFCF"/>
<stop offset="0.926867" stop-color="#FCFCFC"/>
<stop offset="0.982173" stop-color="#E1E1E1"/>
</linearGradient>
<linearGradient id="paint4_linear_451_3044" x1="0.630098" y1="0" x2="0.630098" y2="36.9657" gradientUnits="userSpaceOnUse">
<stop stop-color="#ACACAC"/>
<stop offset="0.489583" stop-color="#D7D7D7"/>
<stop offset="0.96875" stop-color="#ACACAC"/>
</linearGradient>
<linearGradient id="paint5_linear_451_3044" x1="246.788" y1="103.527" x2="246.788" y2="140.082" gradientUnits="userSpaceOnUse">
<stop offset="0.0263387" stop-color="#F3F3F3"/>
<stop offset="0.0804426" stop-color="#BEBEBE"/>
<stop offset="0.586013" stop-color="#D0CFCF"/>
<stop offset="0.926867" stop-color="#FCFCFC"/>
<stop offset="0.982173" stop-color="#E1E1E1"/>
</linearGradient>
<linearGradient id="paint6_linear_451_3044" x1="1.89035" y1="149.744" x2="1.89035" y2="186.71" gradientUnits="userSpaceOnUse">
<stop stop-color="#ACACAC"/>
<stop offset="0.489583" stop-color="#D7D7D7"/>
<stop offset="0.96875" stop-color="#ACACAC"/>
</linearGradient>
<linearGradient id="paint7_linear_451_3044" x1="0.630098" y1="150.155" x2="0.630098" y2="186.71" gradientUnits="userSpaceOnUse">
<stop offset="0.0263387" stop-color="#F3F3F3"/>
<stop offset="0.0804426" stop-color="#BEBEBE"/>
<stop offset="0.586013" stop-color="#D0CFCF"/>
<stop offset="0.926867" stop-color="#FCFCFC"/>
<stop offset="0.982173" stop-color="#E1E1E1"/>
</linearGradient>
<linearGradient id="paint8_linear_451_3044" x1="143.242" y1="15.45" x2="143.242" y2="23.0111" gradientUnits="userSpaceOnUse">
<stop stop-color="#737373"/>
<stop offset="1" stop-color="white" stop-opacity="0"/>
</linearGradient>
<radialGradient id="paint9_radial_451_3044" cx="0" cy="0" r="1" gradientUnits="userSpaceOnUse" gradientTransform="translate(141.982 17.6103) rotate(58.6713) scale(4.8474)">
<stop stop-color="#005BC6"/>
<stop offset="0.223958" stop-color="#013774"/>
<stop offset="0.53125" stop-color="#021425"/>
<stop offset="0.96875" stop-color="#081117"/>
</radialGradient>
</defs>
</svg>
