<svg width="164" height="164" viewBox="0 0 164 164" fill="none" xmlns="http://www.w3.org/2000/svg">
<mask id="mask0_487_2553" style="mask-type:alpha" maskUnits="userSpaceOnUse" x="0" y="0" width="164" height="164">
<circle cx="81.7422" cy="81.7422" r="81.7422" fill="#C4C4C4"/>
</mask>
<g mask="url(#mask0_487_2553)">
<path opacity="0.1" d="M207.959 102.758C207.959 102.758 242.878 78.6043 237.258 26.6999C231.638 -25.2045 187.964 -70.572 144.276 -89.7316C100.588 -108.891 65.5072 -72.4989 31.6432 -63.2641C-2.22087 -54.0293 -26.7442 -75.5941 -59.4047 -46.2032C-92.0651 -16.8123 -91.3268 17.8728 -77.1404 46.6847C-62.9541 75.4966 -37.9884 92.6896 -23.9108 117.607C-9.83323 142.524 7.46569 178.952 50.0715 203.01C92.6773 227.069 136.535 202.749 163.104 173.238C189.673 143.728 187.843 118.997 207.959 102.758Z" fill="#2F98D7"/>
<path opacity="0.1" d="M213.989 -16.4615C213.989 -16.4615 217.13 -58.8036 173.213 -87.0345C129.297 -115.265 66.5625 -109.78 24.212 -87.8217C-18.1385 -65.8634 -11.8576 -15.7078 -25.9437 16.4424C-40.0298 48.5926 -72.2135 54.1283 -69.8602 98.0029C-67.507 141.878 -40.0549 163.091 -8.72544 170.15C22.604 177.21 51.664 168.584 79.8949 173.283C108.126 177.981 147.336 187.402 192.818 169.363C238.301 151.324 246.927 101.922 240.654 62.7123C234.382 23.5023 213.989 9.391 213.989 -16.4615Z" fill="#2F98D7"/>
<path d="M82.2744 75.703V-0.949985H111.443V-33.2007" stroke="#333333" stroke-miterlimit="10"/>
<path d="M84.4519 87.9215H218.747V68.8274H244.416" stroke="#333333" stroke-miterlimit="10"/>
<path d="M77.8694 87.26H-49.8353V66.8594H-77.48" stroke="#333333" stroke-miterlimit="10"/>
<path d="M56.1456 -53.6096V-24.6418H39.6895V-6.21759H60.0984V55.6625" stroke="#333333" stroke-miterlimit="10"/>
<path d="M146.332 31.9623V-9.50882H157.521V-27.2798H166.741" stroke="#333333" stroke-miterlimit="10"/>
<path d="M10.73 28.0179V-3.57955L1.50952 -12.8V-35.8386" stroke="#333333" stroke-miterlimit="10"/>
<path d="M60.0684 135.061V152.179H48.8799V171.273H16.6208" stroke="#333333" stroke-miterlimit="10"/>
<path d="M93.167 147.699V165.47H118.835V158.234H126.079V173.367H148.465" stroke="#333333" stroke-miterlimit="10"/>
<path d="M82.5424 19.1658C73.615 27.5404 50.7188 35.915 24.0791 53.7446C24.0791 53.7446 25.754 114.042 82.5424 146.963V19.1658Z" fill="#2F98D7" stroke="#333333" stroke-linecap="round" stroke-linejoin="round"/>
<path d="M82.5425 19.1658C91.4782 27.5404 114.366 35.915 141.014 53.7446C141.014 53.7446 139.339 114.042 82.5425 146.963V19.1658Z" fill="#333333" stroke="#333333" stroke-linecap="round" stroke-linejoin="round"/>
<path d="M82.5424 24.2996C71.7391 31.7865 53.0721 38.9133 28.3669 55.4448C28.3669 55.4448 29.9162 111.304 82.5424 141.837C135.177 111.304 136.726 55.4448 136.726 55.4448C112.021 38.9133 93.4127 31.7865 82.5424 24.2996Z" fill="#333333" stroke="#333333" stroke-linecap="round" stroke-linejoin="round"/>
<path d="M136.726 55.4448C112.021 38.9217 93.4127 31.7865 82.5425 24.2996V141.837C135.177 111.304 136.726 55.4448 136.726 55.4448Z" fill="#2F98D7" stroke="#333333" stroke-linecap="round" stroke-linejoin="round"/>
<path d="M181.631 85.0156H-17.082V97.8791H181.631V85.0156Z" fill="#333333" stroke="#333333" stroke-linecap="round" stroke-linejoin="round"/>
<path d="M2.48931 87.059C2.4943 87.3234 2.42047 87.5832 2.27722 87.8055C2.13397 88.0277 1.9278 88.2023 1.68497 88.307C1.44214 88.4116 1.17365 88.4416 0.913714 88.3931C0.653782 88.3446 0.414173 88.2198 0.225429 88.0346C0.0366844 87.8494 -0.0926501 87.6122 -0.146098 87.3533C-0.199546 87.0943 -0.174681 86.8253 -0.0746782 86.5805C0.0253243 86.3358 0.195936 86.1263 0.415422 85.9788C0.634908 85.8314 0.893329 85.7526 1.15775 85.7525C1.33111 85.7503 1.5032 85.7824 1.66412 85.847C1.82503 85.9116 1.97158 86.0073 2.09534 86.1287C2.2191 86.2502 2.31763 86.3949 2.38524 86.5545C2.45286 86.7142 2.48822 86.8856 2.48931 87.059Z" fill="white"/>
<path d="M0.387451 87.7792C0.534409 87.9312 0.723047 88.0364 0.929637 88.0815C1.13623 88.1266 1.35154 88.1096 1.54848 88.0326C1.74542 87.9556 1.91519 87.8221 2.03644 87.6488C2.15768 87.4756 2.22498 87.2704 2.22987 87.059C2.22704 86.8076 2.13162 86.5661 1.96187 86.3806C1.406 86.8106 0.879987 87.2779 0.387451 87.7792Z" fill="#333333"/>
<path d="M7.70684 87.059C7.71183 87.3234 7.638 87.5832 7.49475 87.8055C7.3515 88.0277 7.14533 88.2023 6.9025 88.307C6.65967 88.4116 6.39117 88.4416 6.13124 88.3931C5.87131 88.3446 5.63172 88.2198 5.44297 88.0346C5.25423 87.8494 5.12488 87.6122 5.07143 87.3533C5.01798 87.0943 5.04285 86.8253 5.14285 86.5805C5.24285 86.3358 5.41347 86.1263 5.63295 85.9788C5.85244 85.8314 6.11086 85.7526 6.37528 85.7525C6.54864 85.7503 6.72073 85.7824 6.88164 85.847C7.04256 85.9116 7.18911 86.0073 7.31287 86.1287C7.43663 86.2502 7.53516 86.3949 7.60277 86.5545C7.67038 86.7142 7.70575 86.8856 7.70684 87.059Z" fill="white"/>
<path d="M5.57959 87.7792C5.67984 87.8821 5.79961 87.964 5.93191 88.0201C6.06421 88.0762 6.20636 88.1053 6.35005 88.1058C6.48933 88.108 6.62767 88.0826 6.75708 88.0311C6.8865 87.9796 7.00443 87.903 7.10409 87.8057C7.20374 87.7083 7.28314 87.5923 7.3377 87.4641C7.39227 87.3359 7.42092 87.1983 7.42201 87.059C7.41918 86.8076 7.32377 86.5661 7.15402 86.3806C6.59994 86.8128 6.07405 87.2799 5.57959 87.7792Z" fill="#333333"/>
<path d="M12.9241 87.059C12.9291 87.3234 12.8553 87.5832 12.712 87.8055C12.5688 88.0277 12.3626 88.2023 12.1198 88.307C11.8769 88.4116 11.6085 88.4416 11.3485 88.3931C11.0886 88.3446 10.849 88.2198 10.6602 88.0346C10.4715 87.8494 10.3422 87.6122 10.2887 87.3533C10.2353 87.0943 10.2601 86.8253 10.3601 86.5805C10.4601 86.3358 10.6308 86.1263 10.8502 85.9788C11.0697 85.8314 11.3281 85.7526 11.5926 85.7525C11.7659 85.7503 11.938 85.7824 12.0989 85.847C12.2598 85.9116 12.4064 86.0073 12.5301 86.1287C12.6539 86.2502 12.7524 86.3949 12.82 86.5545C12.8877 86.7142 12.923 86.8856 12.9241 87.059Z" fill="white"/>
<path d="M10.8306 87.7792C10.9764 87.9324 11.1645 88.0387 11.371 88.0845C11.5775 88.1302 11.793 88.1134 11.9899 88.0361C12.1867 87.9587 12.3561 87.8245 12.4763 87.6504C12.5965 87.4764 12.662 87.2705 12.6646 87.059C12.6618 86.8076 12.5664 86.5661 12.3966 86.3806C11.8434 86.8106 11.3201 87.2779 10.8306 87.7792Z" fill="#333333"/>
<path d="M18.1416 87.059C18.1483 87.3253 18.0754 87.5876 17.9323 87.8123C17.7891 88.037 17.5823 88.214 17.3381 88.3206C17.0939 88.4271 16.8235 88.4585 16.5614 88.4106C16.2993 88.3628 16.0574 88.2379 15.8667 88.0519C15.6759 87.8659 15.5449 87.6273 15.4905 87.3665C15.436 87.1057 15.4605 86.8346 15.5609 86.5878C15.6612 86.341 15.8329 86.1297 16.0539 85.9809C16.2749 85.8321 16.5353 85.7526 16.8017 85.7525C16.9754 85.7503 17.1479 85.7824 17.3093 85.8468C17.4707 85.9113 17.6178 86.0069 17.7422 86.1282C17.8667 86.2495 17.966 86.3942 18.0345 86.5539C18.103 86.7136 18.1394 86.8852 18.1416 87.059Z" fill="white"/>
<path d="M16.0479 87.7792C16.1936 87.9324 16.3818 88.0387 16.5883 88.0845C16.7948 88.1302 17.0103 88.1134 17.2072 88.0361C17.404 87.9587 17.5734 87.8245 17.6936 87.6504C17.8138 87.4764 17.8793 87.2705 17.8819 87.059C17.8791 86.8076 17.7836 86.5661 17.6139 86.3806C17.0624 86.8127 16.5393 87.2799 16.0479 87.7792Z" fill="#333333"/>
<path d="M23.3672 87.059C23.3722 87.3234 23.2984 87.5832 23.1551 87.8055C23.0119 88.0277 22.8057 88.2023 22.5629 88.307C22.3201 88.4116 22.0516 88.4416 21.7916 88.3931C21.5317 88.3446 21.2921 88.2198 21.1034 88.0346C20.9146 87.8494 20.7853 87.6122 20.7318 87.3533C20.6784 87.0943 20.7032 86.8253 20.8032 86.5805C20.9032 86.3358 21.0739 86.1263 21.2934 85.9788C21.5128 85.8314 21.7712 85.7526 22.0357 85.7525C22.209 85.7503 22.3811 85.7824 22.542 85.847C22.703 85.9116 22.8495 86.0073 22.9733 86.1287C23.097 86.2502 23.1955 86.3949 23.2632 86.5545C23.3308 86.7142 23.3662 86.8856 23.3672 87.059Z" fill="white"/>
<path d="M21.2654 87.7792C21.3653 87.8825 21.4851 87.9647 21.6174 88.0208C21.7498 88.0769 21.8921 88.1058 22.0358 88.1058C22.1744 88.1069 22.3119 88.0807 22.4403 88.0287C22.5687 87.9767 22.6857 87.8999 22.7845 87.8027C22.8832 87.7055 22.9619 87.5897 23.0159 87.4621C23.0699 87.3345 23.0983 87.1975 23.0994 87.059C23.0999 86.807 23.004 86.5643 22.8314 86.3806C22.28 86.8127 21.7569 87.2799 21.2654 87.7792Z" fill="#333333"/>
<path d="M28.5848 87.059C28.5898 87.3234 28.5159 87.5832 28.3727 87.8055C28.2294 88.0277 28.0232 88.2023 27.7804 88.307C27.5376 88.4116 27.2691 88.4416 27.0092 88.3931C26.7492 88.3446 26.5096 88.2198 26.3209 88.0346C26.1321 87.8494 26.0028 87.6122 25.9494 87.3533C25.8959 87.0943 25.9208 86.8253 26.0208 86.5805C26.1208 86.3358 26.2914 86.1263 26.5109 85.9788C26.7304 85.8314 26.9888 85.7526 27.2532 85.7525C27.4266 85.7503 27.5987 85.7824 27.7596 85.847C27.9205 85.9116 28.067 86.0073 28.1908 86.1287C28.3146 86.2502 28.4131 86.3949 28.4807 86.5545C28.5483 86.7142 28.5837 86.8856 28.5848 87.059Z" fill="white"/>
<path d="M26.5161 87.7792C26.6631 87.9312 26.8517 88.0364 27.0583 88.0815C27.2649 88.1266 27.4802 88.1096 27.6771 88.0326C27.8741 87.9556 28.0439 87.8221 28.1651 87.6488C28.2863 87.4756 28.3536 87.2704 28.3585 87.059C28.3557 86.8076 28.2603 86.5661 28.0905 86.3806C27.5365 86.8128 27.0106 87.2799 26.5161 87.7792Z" fill="#333333"/>
<path d="M33.8021 87.059C33.807 87.3234 33.7332 87.5832 33.59 87.8055C33.4467 88.0277 33.2405 88.2023 32.9977 88.307C32.7549 88.4116 32.4864 88.4416 32.2265 88.3931C31.9665 88.3446 31.7269 88.2198 31.5382 88.0346C31.3494 87.8494 31.2201 87.6122 31.1666 87.3533C31.1132 87.0943 31.1381 86.8253 31.2381 86.5805C31.3381 86.3358 31.5087 86.1263 31.7282 85.9788C31.9477 85.8314 32.2061 85.7526 32.4705 85.7525C32.6439 85.7503 32.8159 85.7824 32.9769 85.847C33.1378 85.9116 33.2843 86.0073 33.4081 86.1287C33.5318 86.2502 33.6304 86.3949 33.698 86.5545C33.7656 86.7142 33.801 86.8856 33.8021 87.059Z" fill="white"/>
<path d="M31.7 87.7792C31.8002 87.8821 31.92 87.964 32.0523 88.0201C32.1846 88.0762 32.3267 88.1053 32.4704 88.1058C32.6097 88.108 32.748 88.0826 32.8774 88.0311C33.0068 87.9796 33.1248 87.903 33.2244 87.8057C33.3241 87.7083 33.4035 87.5923 33.4581 87.4641C33.5126 87.3359 33.5413 87.1983 33.5424 87.059C33.5395 86.8076 33.4441 86.5661 33.2744 86.3806C32.7203 86.8128 32.1944 87.2799 31.7 87.7792Z" fill="#333333"/>
<path d="M39.0196 87.059C39.0246 87.3234 38.9507 87.5832 38.8075 87.8055C38.6642 88.0277 38.4581 88.2023 38.2152 88.307C37.9724 88.4116 37.7039 88.4416 37.444 88.3931C37.184 88.3446 36.9445 88.2198 36.7557 88.0346C36.567 87.8494 36.4376 87.6122 36.3842 87.3533C36.3307 87.0943 36.3556 86.8253 36.4556 86.5805C36.5556 86.3358 36.7262 86.1263 36.9457 85.9788C37.1652 85.8314 37.4236 85.7526 37.688 85.7525C37.8614 85.7503 38.0335 85.7824 38.1944 85.847C38.3553 85.9116 38.5018 86.0073 38.6256 86.1287C38.7494 86.2502 38.8479 86.3949 38.9155 86.5545C38.9831 86.7142 39.0185 86.8856 39.0196 87.059Z" fill="white"/>
<path d="M36.9258 87.7792C37.0716 87.9324 37.2598 88.0387 37.4663 88.0845C37.6728 88.1302 37.8882 88.1134 38.0851 88.0361C38.282 87.9587 38.4513 87.8245 38.5715 87.6504C38.6917 87.4764 38.7573 87.2705 38.7598 87.059C38.757 86.8076 38.6616 86.5661 38.4918 86.3806C37.9404 86.8127 37.4173 87.2799 36.9258 87.7792Z" fill="#333333"/>
<path d="M44.2454 87.059C44.252 87.3257 44.1789 87.5883 44.0354 87.8132C43.892 88.0381 43.6846 88.2151 43.4399 88.3214C43.1952 88.4277 42.9244 88.4586 42.6621 88.4101C42.3997 88.3615 42.1579 88.2358 41.9674 88.0489C41.777 87.8621 41.6467 87.6227 41.5932 87.3613C41.5396 87.1 41.5653 86.8286 41.667 86.5819C41.7687 86.3353 41.9416 86.1246 42.1637 85.9768C42.3859 85.8291 42.647 85.751 42.9138 85.7525C43.0872 85.7503 43.2593 85.7824 43.4202 85.847C43.5811 85.9116 43.7277 86.0073 43.8514 86.1287C43.9752 86.2502 44.0737 86.3949 44.1413 86.5545C44.2089 86.7142 44.2443 86.8856 44.2454 87.059Z" fill="white"/>
<path d="M42.1433 87.7792C42.2891 87.9324 42.4773 88.0387 42.6838 88.0845C42.8903 88.1302 43.1057 88.1134 43.3026 88.0361C43.4995 87.9587 43.6688 87.8245 43.789 87.6504C43.9092 87.4764 43.9748 87.2705 43.9774 87.059C43.9778 86.807 43.8819 86.5643 43.7094 86.3806C43.1579 86.8127 42.6348 87.2799 42.1433 87.7792Z" fill="#333333"/>
<path d="M49.4627 87.059C49.4677 87.3234 49.3939 87.5832 49.2506 87.8055C49.1074 88.0277 48.9012 88.2023 48.6584 88.307C48.4155 88.4116 48.147 88.4416 47.8871 88.3931C47.6272 88.3446 47.3876 88.2198 47.1988 88.0346C47.0101 87.8494 46.8807 87.6122 46.8273 87.3533C46.7738 87.0943 46.7987 86.8253 46.8987 86.5805C46.9987 86.3358 47.1693 86.1263 47.3888 85.9788C47.6083 85.8314 47.8667 85.7526 48.1311 85.7525C48.3045 85.7503 48.4766 85.7824 48.6375 85.847C48.7984 85.9116 48.945 86.0073 49.0687 86.1287C49.1925 86.2502 49.291 86.3949 49.3586 86.5545C49.4262 86.7142 49.4616 86.8856 49.4627 87.059Z" fill="white"/>
<path d="M47.3606 87.7792C47.5076 87.9312 47.6962 88.0364 47.9028 88.0815C48.1094 88.1266 48.3247 88.1096 48.5216 88.0326C48.7186 87.9556 48.8883 87.8221 49.0096 87.6488C49.1308 87.4756 49.1981 87.2704 49.203 87.059C49.2002 86.8076 49.1048 86.5661 48.935 86.3806C48.3792 86.8106 47.8531 87.2779 47.3606 87.7792Z" fill="#333333"/>
<path d="M54.68 87.059C54.685 87.3234 54.6111 87.5832 54.4679 87.8055C54.3246 88.0277 54.1185 88.2023 53.8756 88.307C53.6328 88.4116 53.3643 88.4416 53.1044 88.3931C52.8445 88.3446 52.6049 88.2198 52.4161 88.0346C52.2274 87.8494 52.098 87.6122 52.0446 87.3533C51.9911 87.0943 52.016 86.8253 52.116 86.5805C52.216 86.3358 52.3866 86.1263 52.6061 85.9788C52.8256 85.8314 53.084 85.7526 53.3484 85.7525C53.5218 85.7503 53.6939 85.7824 53.8548 85.847C54.0157 85.9116 54.1622 86.0073 54.286 86.1287C54.4098 86.2502 54.5083 86.3949 54.5759 86.5545C54.6435 86.7142 54.6789 86.8856 54.68 87.059Z" fill="white"/>
<path d="M52.5781 87.7792C52.6784 87.8821 52.7982 87.964 52.9305 88.0201C53.0628 88.0762 53.2049 88.1053 53.3486 88.1058C53.4879 88.108 53.6262 88.0826 53.7556 88.0311C53.885 87.9796 54.003 87.903 54.1026 87.8057C54.2023 87.7083 54.2817 87.5923 54.3362 87.4641C54.3908 87.3359 54.4195 87.1983 54.4206 87.059C54.4177 86.8076 54.3223 86.5661 54.1526 86.3806C53.5985 86.8128 53.0726 87.2799 52.5781 87.7792Z" fill="#333333"/>
<path d="M2.48937 95.3582C2.49604 95.6229 2.42363 95.8836 2.28143 96.1069C2.13922 96.3303 1.93366 96.5061 1.69101 96.6121C1.44836 96.718 1.17965 96.7492 0.919183 96.7017C0.658717 96.6541 0.418327 96.53 0.228738 96.3452C0.0391498 96.1604 -0.0910384 95.9232 -0.145191 95.6641C-0.199344 95.4049 -0.175002 95.1355 -0.0752789 94.8902C0.0244445 94.6449 0.195026 94.435 0.414668 94.2871C0.63431 94.1393 0.893044 94.0603 1.15781 94.0602C1.33048 94.058 1.50189 94.0898 1.66226 94.1538C1.82263 94.2178 1.96882 94.3129 2.09247 94.4334C2.21612 94.5539 2.31481 94.6976 2.38292 94.8563C2.45102 95.015 2.48719 95.1856 2.48937 95.3582Z" fill="white"/>
<path d="M0.387451 96.0868C0.534914 96.2393 0.724309 96.3446 0.931656 96.3894C1.139 96.4342 1.35498 96.4165 1.55225 96.3385C1.74952 96.2605 1.9192 96.1257 2.03982 95.9512C2.16045 95.7767 2.22659 95.5703 2.22987 95.3582C2.225 95.1097 2.12971 94.8715 1.96187 94.6882C1.406 95.1182 0.879987 95.5855 0.387451 96.0868Z" fill="#333333"/>
<path d="M7.70689 95.3582C7.71355 95.6229 7.64116 95.8836 7.49896 96.1069C7.35675 96.3303 7.15119 96.5061 6.90854 96.6121C6.66589 96.718 6.39717 96.7492 6.1367 96.7017C5.87623 96.6541 5.63586 96.53 5.44627 96.3452C5.25668 96.1604 5.12649 95.9232 5.07234 95.6641C5.01819 95.4049 5.04253 95.1355 5.14225 94.8902C5.24197 94.6449 5.41254 94.435 5.63218 94.2871C5.85183 94.1393 6.11056 94.0603 6.37533 94.0602C6.548 94.058 6.71941 94.0898 6.87978 94.1538C7.04015 94.2178 7.18634 94.3129 7.30999 94.4334C7.43364 94.5539 7.53233 94.6976 7.60043 94.8563C7.66853 95.015 7.70471 95.1856 7.70689 95.3582Z" fill="white"/>
<path d="M5.57959 96.0868C5.67984 96.1897 5.79961 96.2716 5.93191 96.3277C6.06421 96.3838 6.20636 96.4129 6.35005 96.4134C6.48973 96.4145 6.62824 96.3881 6.75771 96.3357C6.88717 96.2832 7.00504 96.2058 7.10458 96.1078C7.20412 96.0098 7.28339 95.8932 7.33786 95.7646C7.39232 95.636 7.42091 95.4979 7.42201 95.3582C7.41714 95.1097 7.32187 94.8715 7.15402 94.6882C6.59994 95.1204 6.07405 95.5875 5.57959 96.0868Z" fill="#333333"/>
<path d="M12.9242 95.3582C12.9309 95.6229 12.8584 95.8836 12.7162 96.1069C12.574 96.3303 12.3685 96.5061 12.1258 96.6121C11.8832 96.718 11.6145 96.7492 11.354 96.7017C11.0935 96.6541 10.8531 96.53 10.6636 96.3452C10.474 96.1604 10.3438 95.9232 10.2896 95.6641C10.2355 95.4049 10.2598 95.1355 10.3595 94.8902C10.4593 94.6449 10.6298 94.435 10.8495 94.2871C11.0691 94.1393 11.3278 94.0603 11.5926 94.0602C11.7653 94.058 11.9367 94.0898 12.0971 94.1538C12.2574 94.2178 12.4036 94.3129 12.5273 94.4334C12.6509 94.5539 12.7496 94.6976 12.8177 94.8563C12.8858 95.015 12.922 95.1856 12.9242 95.3582Z" fill="white"/>
<path d="M10.8306 96.0868C10.9287 96.1903 11.0468 96.2726 11.1779 96.3288C11.3089 96.3849 11.4501 96.4137 11.5926 96.4134C11.7323 96.4145 11.8709 96.3881 12.0003 96.3357C12.1298 96.2832 12.2476 96.2058 12.3472 96.1078C12.4467 96.0098 12.526 95.8932 12.5805 95.7646C12.6349 95.636 12.6635 95.4979 12.6646 95.3582C12.6597 95.1097 12.5645 94.8715 12.3966 94.6882C11.8434 95.1182 11.3201 95.5855 10.8306 96.0868Z" fill="#333333"/>
<path d="M18.1414 95.3582C18.1497 95.6249 18.0783 95.8879 17.9362 96.1137C17.7941 96.3395 17.5879 96.5178 17.3439 96.6256C17.0999 96.7335 16.8293 96.7661 16.5667 96.7192C16.304 96.6723 16.0614 96.5481 15.8698 96.3625C15.6782 96.1769 15.5463 95.9383 15.4911 95.6773C15.436 95.4163 15.4599 95.1448 15.56 94.8975C15.6601 94.6502 15.8317 94.4384 16.0529 94.2892C16.274 94.1401 16.5347 94.0603 16.8014 94.0602C17.151 94.0557 17.488 94.1897 17.7391 94.4329C17.9902 94.6761 18.1348 95.0087 18.1414 95.3582Z" fill="white"/>
<path d="M16.0479 96.0868C16.1459 96.1903 16.2641 96.2726 16.3952 96.3288C16.5262 96.3849 16.6674 96.4137 16.8099 96.4134C16.9496 96.4145 17.0881 96.3881 17.2176 96.3357C17.3471 96.2832 17.4649 96.2058 17.5645 96.1078C17.664 96.0098 17.7433 95.8932 17.7977 95.7646C17.8522 95.636 17.8808 95.4979 17.8819 95.3582C17.877 95.1097 17.7817 94.8715 17.6139 94.6882C17.0624 95.1204 16.5393 95.5875 16.0479 96.0868Z" fill="#333333"/>
<path d="M23.3673 95.3582C23.374 95.6229 23.3016 95.8836 23.1594 96.1069C23.0172 96.3303 22.8116 96.5061 22.5689 96.6121C22.3263 96.718 22.0576 96.7492 21.7971 96.7017C21.5366 96.6541 21.2963 96.53 21.1067 96.3452C20.9171 96.1604 20.7869 95.9232 20.7327 95.6641C20.6786 95.4049 20.7029 95.1355 20.8027 94.8902C20.9024 94.6449 21.073 94.435 21.2926 94.2871C21.5122 94.1393 21.771 94.0603 22.0357 94.0602C22.2084 94.058 22.3798 94.0898 22.5402 94.1538C22.7005 94.2178 22.8467 94.3129 22.9704 94.4334C23.094 94.5539 23.1927 94.6976 23.2608 94.8563C23.3289 95.015 23.3651 95.1856 23.3673 95.3582Z" fill="white"/>
<path d="M21.2654 96.0868C21.4117 96.2405 21.6006 96.347 21.8079 96.3925C22.0152 96.4379 22.2313 96.4204 22.4285 96.342C22.6258 96.2637 22.795 96.1281 22.9146 95.9528C23.0341 95.7775 23.0985 95.5704 23.0994 95.3582C23.0986 95.1089 23.0027 94.8693 22.8314 94.6882C22.28 95.1204 21.7569 95.5875 21.2654 96.0868Z" fill="#333333"/>
<path d="M28.5846 95.3582C28.5913 95.6229 28.5188 95.8836 28.3766 96.1069C28.2344 96.3303 28.0289 96.5061 27.7862 96.6121C27.5436 96.718 27.2749 96.7492 27.0144 96.7017C26.7539 96.6541 26.5135 96.53 26.324 96.3452C26.1344 96.1604 26.0042 95.9232 25.95 95.6641C25.8959 95.4049 25.9202 95.1355 26.0199 94.8902C26.1197 94.6449 26.2902 94.435 26.5099 94.2871C26.7295 94.1393 26.9883 94.0603 27.253 94.0602C27.4257 94.058 27.5971 94.0898 27.7575 94.1538C27.9178 94.2178 28.064 94.3129 28.1877 94.4334C28.3113 94.5539 28.41 94.6976 28.4781 94.8563C28.5462 95.015 28.5824 95.1856 28.5846 95.3582Z" fill="white"/>
<path d="M26.5161 96.0868C26.6636 96.2393 26.853 96.3446 27.0603 96.3894C27.2677 96.4342 27.4836 96.4165 27.6809 96.3385C27.8782 96.2605 28.0479 96.1257 28.1685 95.9512C28.2891 95.7767 28.3553 95.5703 28.3585 95.3582C28.3537 95.1097 28.2584 94.8715 28.0905 94.6882C27.5365 95.1204 27.0106 95.5875 26.5161 96.0868Z" fill="#333333"/>
<path d="M33.8021 95.3582C33.8088 95.6229 33.7364 95.8836 33.5942 96.1069C33.452 96.3303 33.2464 96.5061 33.0038 96.6121C32.7611 96.718 32.4924 96.7492 32.2319 96.7017C31.9715 96.6541 31.7311 96.53 31.5415 96.3452C31.3519 96.1604 31.2217 95.9232 31.1676 95.6641C31.1134 95.4049 31.1377 95.1355 31.2375 94.8902C31.3372 94.6449 31.5078 94.435 31.7274 94.2871C31.9471 94.1393 32.2058 94.0603 32.4706 94.0602C32.6432 94.058 32.8146 94.0898 32.975 94.1538C33.1354 94.2178 33.2816 94.3129 33.4052 94.4334C33.5289 94.5539 33.6276 94.6976 33.6957 94.8563C33.7638 95.015 33.7999 95.1856 33.8021 95.3582Z" fill="white"/>
<path d="M31.7 96.0868C31.8002 96.1897 31.92 96.2716 32.0523 96.3277C32.1846 96.3838 32.3267 96.4129 32.4704 96.4134C32.6101 96.4145 32.7486 96.3881 32.8781 96.3357C33.0075 96.2832 33.1254 96.2058 33.2249 96.1078C33.3245 96.0098 33.4037 95.8932 33.4582 95.7646C33.5127 95.636 33.5413 95.4979 33.5424 95.3582C33.5375 95.1097 33.4422 94.8715 33.2744 94.6882C32.7203 95.1204 32.1944 95.5875 31.7 96.0868Z" fill="#333333"/>
<path d="M39.0194 95.3582C39.0261 95.6229 38.9537 95.8836 38.8115 96.1069C38.6692 96.3303 38.4637 96.5061 38.221 96.6121C37.9784 96.718 37.7097 96.7492 37.4492 96.7017C37.1887 96.6541 36.9484 96.53 36.7588 96.3452C36.5692 96.1604 36.439 95.9232 36.3848 95.6641C36.3307 95.4049 36.355 95.1355 36.4548 94.8902C36.5545 94.6449 36.725 94.435 36.9447 94.2871C37.1643 94.1393 37.4231 94.0603 37.6878 94.0602C37.8605 94.058 38.0319 94.0898 38.1923 94.1538C38.3526 94.2178 38.4988 94.3129 38.6225 94.4334C38.7461 94.5539 38.8448 94.6976 38.9129 94.8563C38.981 95.015 39.0172 95.1856 39.0194 95.3582Z" fill="white"/>
<path d="M36.9258 96.0868C37.0239 96.1903 37.1421 96.2726 37.2731 96.3288C37.4042 96.3849 37.5453 96.4137 37.6879 96.4134C37.8275 96.4145 37.9661 96.3881 38.0955 96.3357C38.225 96.2832 38.3429 96.2058 38.4424 96.1078C38.5419 96.0098 38.6212 95.8932 38.6757 95.7646C38.7301 95.636 38.7587 95.4979 38.7598 95.3582C38.755 95.1097 38.6597 94.8715 38.4918 94.6882C37.9404 95.1204 37.4173 95.5875 36.9258 96.0868Z" fill="#333333"/>
<path d="M44.2454 95.3582C44.2537 95.6252 44.1821 95.8886 44.0396 96.1146C43.8972 96.3406 43.6905 96.5188 43.446 96.6265C43.2015 96.7341 42.9304 96.7662 42.6676 96.7186C42.4047 96.6711 42.1621 96.546 41.9708 96.3595C41.7795 96.1731 41.6483 95.9337 41.5941 95.6721C41.5398 95.4106 41.565 95.1388 41.6664 94.8916C41.7677 94.6445 41.9407 94.4333 42.1629 94.2851C42.3852 94.137 42.6467 94.0586 42.9138 94.0602C43.0865 94.058 43.2579 94.0898 43.4183 94.1538C43.5786 94.2178 43.7248 94.3129 43.8485 94.4334C43.9721 94.5539 44.0708 94.6976 44.1389 94.8563C44.207 95.015 44.2432 95.1856 44.2454 95.3582Z" fill="white"/>
<path d="M42.1433 96.0868C42.2896 96.2405 42.4785 96.347 42.6858 96.3925C42.8931 96.4379 43.1092 96.4204 43.3065 96.342C43.5037 96.2637 43.6729 96.1281 43.7925 95.9528C43.9121 95.7775 43.9764 95.5704 43.9774 95.3582C43.9765 95.1089 43.8807 94.8693 43.7094 94.6882C43.1579 95.1204 42.6348 95.5875 42.1433 96.0868Z" fill="#333333"/>
<path d="M49.4628 95.3582C49.4694 95.6229 49.397 95.8836 49.2548 96.1069C49.1126 96.3303 48.9071 96.5061 48.6644 96.6121C48.4218 96.718 48.153 96.7492 47.8926 96.7017C47.6321 96.6541 47.3917 96.53 47.2021 96.3452C47.0125 96.1604 46.8824 95.9232 46.8282 95.6641C46.774 95.4049 46.7984 95.1355 46.8981 94.8902C46.9978 94.6449 47.1684 94.435 47.388 94.2871C47.6077 94.1393 47.8664 94.0603 48.1312 94.0602C48.3039 94.058 48.4753 94.0898 48.6356 94.1538C48.796 94.2178 48.9422 94.3129 49.0658 94.4334C49.1895 94.5539 49.2882 94.6976 49.3563 94.8563C49.4244 95.015 49.4606 95.1856 49.4628 95.3582Z" fill="white"/>
<path d="M47.3606 96.0868C47.5081 96.2393 47.6975 96.3446 47.9048 96.3894C48.1121 96.4342 48.3281 96.4165 48.5254 96.3385C48.7227 96.2605 48.8923 96.1257 49.013 95.9512C49.1336 95.7767 49.1997 95.5703 49.203 95.3582C49.1981 95.1097 49.1029 94.8715 48.935 94.6882C48.3792 95.1182 47.8531 95.5855 47.3606 96.0868Z" fill="#333333"/>
<path d="M54.68 95.3582C54.6867 95.6229 54.6143 95.8836 54.4721 96.1069C54.3299 96.3303 54.1243 96.5061 53.8817 96.6121C53.639 96.718 53.3703 96.7492 53.1098 96.7017C52.8494 96.6541 52.609 96.53 52.4194 96.3452C52.2298 96.1604 52.0996 95.9232 52.0455 95.6641C51.9913 95.4049 52.0157 95.1355 52.1154 94.8902C52.2151 94.6449 52.3857 94.435 52.6053 94.2871C52.825 94.1393 53.0837 94.0603 53.3485 94.0602C53.5211 94.058 53.6926 94.0898 53.8529 94.1538C54.0133 94.2178 54.1595 94.3129 54.2831 94.4334C54.4068 94.5539 54.5055 94.6976 54.5736 94.8563C54.6417 95.015 54.6779 95.1856 54.68 95.3582Z" fill="white"/>
<path d="M52.5781 96.0868C52.6784 96.1897 52.7982 96.2716 52.9305 96.3277C53.0628 96.3838 53.2049 96.4129 53.3486 96.4134C53.4883 96.4145 53.6268 96.3881 53.7563 96.3357C53.8857 96.2832 54.0036 96.2058 54.1031 96.1078C54.2027 96.0098 54.2819 95.8932 54.3364 95.7646C54.3909 95.636 54.4195 95.4979 54.4206 95.3582C54.4157 95.1097 54.3204 94.8715 54.1526 94.6882C53.5985 95.1204 53.0726 95.5875 52.5781 96.0868Z" fill="#333333"/>
<path d="M112.507 87.059C112.512 87.3234 112.438 87.5832 112.295 87.8055C112.152 88.0277 111.945 88.2023 111.703 88.307C111.46 88.4116 111.191 88.4416 110.931 88.3931C110.671 88.3446 110.432 88.2198 110.243 88.0346C110.054 87.8494 109.925 87.6122 109.871 87.3533C109.818 87.0943 109.843 86.8253 109.943 86.5805C110.043 86.3358 110.214 86.1263 110.433 85.9788C110.652 85.8314 110.911 85.7526 111.175 85.7525C111.349 85.7503 111.521 85.7824 111.682 85.847C111.843 85.9116 111.989 86.0073 112.113 86.1287C112.237 86.2502 112.335 86.3949 112.403 86.5545C112.47 86.7142 112.506 86.8856 112.507 87.059Z" fill="white"/>
<path d="M110.413 87.7792C110.559 87.9324 110.747 88.0387 110.954 88.0845C111.16 88.1302 111.376 88.1134 111.573 88.0361C111.77 87.9587 111.939 87.8245 112.059 87.6504C112.179 87.4764 112.245 87.2705 112.247 87.059C112.245 86.8076 112.149 86.5661 111.979 86.3806C111.428 86.8127 110.905 87.2799 110.413 87.7792Z" fill="#333333"/>
<path d="M117.733 87.059C117.739 87.3257 117.666 87.5883 117.523 87.8132C117.379 88.0381 117.172 88.2151 116.927 88.3214C116.683 88.4277 116.412 88.4586 116.149 88.4101C115.887 88.3615 115.645 88.2358 115.455 88.0489C115.264 87.8621 115.134 87.6227 115.08 87.3613C115.027 87.1 115.053 86.8286 115.154 86.5819C115.256 86.3353 115.429 86.1246 115.651 85.9768C115.873 85.8291 116.134 85.751 116.401 85.7525C116.574 85.7503 116.747 85.7824 116.908 85.847C117.068 85.9116 117.215 86.0073 117.339 86.1287C117.462 86.2502 117.561 86.3949 117.629 86.5545C117.696 86.7142 117.732 86.8856 117.733 87.059Z" fill="white"/>
<path d="M115.631 87.7792C115.776 87.9324 115.965 88.0387 116.171 88.0845C116.378 88.1302 116.593 88.1134 116.79 88.0361C116.987 87.9587 117.156 87.8245 117.276 87.6504C117.397 87.4764 117.462 87.2705 117.465 87.059C117.465 86.807 117.369 86.5643 117.197 86.3806C116.645 86.8127 116.122 87.2799 115.631 87.7792Z" fill="#333333"/>
<path d="M122.95 87.059C122.955 87.3234 122.881 87.5832 122.738 87.8055C122.595 88.0277 122.388 88.2023 122.146 88.307C121.903 88.4116 121.634 88.4416 121.374 88.3931C121.114 88.3446 120.875 88.2198 120.686 88.0346C120.497 87.8494 120.368 87.6122 120.315 87.3533C120.261 87.0943 120.286 86.8253 120.386 86.5805C120.486 86.3358 120.657 86.1263 120.876 85.9788C121.096 85.8314 121.354 85.7526 121.618 85.7525C121.792 85.7503 121.964 85.7824 122.125 85.847C122.286 85.9116 122.432 86.0073 122.556 86.1287C122.68 86.2502 122.778 86.3949 122.846 86.5545C122.914 86.7142 122.949 86.8856 122.95 87.059Z" fill="white"/>
<path d="M120.848 87.7792C120.995 87.9312 121.184 88.0364 121.39 88.0815C121.597 88.1266 121.812 88.1096 122.009 88.0326C122.206 87.9556 122.376 87.8221 122.497 87.6488C122.618 87.4756 122.686 87.2704 122.691 87.059C122.688 86.8076 122.592 86.5661 122.423 86.3806C121.867 86.8106 121.341 87.2779 120.848 87.7792Z" fill="#333333"/>
<path d="M128.167 87.059C128.172 87.3234 128.098 87.5832 127.955 87.8055C127.812 88.0277 127.606 88.2023 127.363 88.307C127.12 88.4116 126.852 88.4416 126.592 88.3931C126.332 88.3446 126.092 88.2198 125.903 88.0346C125.715 87.8494 125.585 87.6122 125.532 87.3533C125.478 87.0943 125.503 86.8253 125.603 86.5805C125.703 86.3358 125.874 86.1263 126.093 85.9788C126.313 85.8314 126.571 85.7526 126.836 85.7525C127.009 85.7503 127.181 85.7824 127.342 85.847C127.503 85.9116 127.65 86.0073 127.773 86.1287C127.897 86.2502 127.996 86.3949 128.063 86.5545C128.131 86.7142 128.166 86.8856 128.167 87.059Z" fill="white"/>
<path d="M126.065 87.7792C126.166 87.8821 126.285 87.964 126.418 88.0201C126.55 88.0762 126.692 88.1053 126.836 88.1058C126.975 88.108 127.113 88.0826 127.243 88.0311C127.372 87.9796 127.49 87.903 127.59 87.8057C127.69 87.7083 127.769 87.5923 127.824 87.4641C127.878 87.3359 127.907 87.1983 127.908 87.059C127.905 86.8076 127.81 86.5661 127.64 86.3806C127.086 86.8128 126.56 87.2799 126.065 87.7792Z" fill="#333333"/>
<path d="M133.385 87.059C133.39 87.3234 133.316 87.5832 133.173 87.8055C133.029 88.0277 132.823 88.2023 132.58 88.307C132.338 88.4116 132.069 88.4416 131.809 88.3931C131.549 88.3446 131.31 88.2198 131.121 88.0346C130.932 87.8494 130.803 87.6122 130.749 87.3533C130.696 87.0943 130.721 86.8253 130.821 86.5805C130.921 86.3358 131.091 86.1263 131.311 85.9788C131.53 85.8314 131.789 85.7526 132.053 85.7525C132.227 85.7503 132.399 85.7824 132.56 85.847C132.721 85.9116 132.867 86.0073 132.991 86.1287C133.115 86.2502 133.213 86.3949 133.281 86.5545C133.348 86.7142 133.384 86.8856 133.385 87.059Z" fill="white"/>
<path d="M131.291 87.7792C131.437 87.9324 131.625 88.0387 131.832 88.0845C132.038 88.1302 132.254 88.1134 132.451 88.0361C132.647 87.9587 132.817 87.8245 132.937 87.6504C133.057 87.4764 133.123 87.2705 133.125 87.059C133.122 86.8076 133.027 86.5661 132.857 86.3806C132.304 86.8106 131.781 87.2779 131.291 87.7792Z" fill="#333333"/>
<path d="M138.61 87.059C138.617 87.3253 138.544 87.5876 138.401 87.8123C138.258 88.037 138.051 88.214 137.807 88.3206C137.563 88.4271 137.292 88.4585 137.03 88.4106C136.768 88.3628 136.526 88.2379 136.335 88.0519C136.145 87.8659 136.014 87.6273 135.959 87.3665C135.905 87.1057 135.929 86.8346 136.03 86.5878C136.13 86.341 136.302 86.1297 136.523 85.9809C136.744 85.8321 137.004 85.7526 137.27 85.7525C137.444 85.7503 137.617 85.7824 137.778 85.8468C137.939 85.9113 138.087 86.0069 138.211 86.1282C138.335 86.2495 138.435 86.3942 138.503 86.5539C138.572 86.7136 138.608 86.8852 138.61 87.059Z" fill="white"/>
<path d="M136.509 87.7792C136.655 87.9324 136.843 88.0387 137.049 88.0845C137.256 88.1302 137.471 88.1134 137.668 88.0361C137.865 87.9587 138.034 87.8245 138.155 87.6504C138.275 87.4764 138.34 87.2705 138.343 87.059C138.34 86.8076 138.245 86.5661 138.075 86.3806C137.523 86.8127 137 87.2799 136.509 87.7792Z" fill="#333333"/>
<path d="M143.828 87.059C143.835 87.3257 143.761 87.5883 143.618 87.8132C143.474 88.0381 143.267 88.2151 143.022 88.3214C142.778 88.4277 142.507 88.4586 142.245 88.4101C141.982 88.3615 141.74 88.2358 141.55 88.0489C141.36 87.8621 141.229 87.6227 141.176 87.3613C141.122 87.1 141.148 86.8286 141.25 86.5819C141.351 86.3353 141.524 86.1246 141.746 85.9768C141.968 85.8291 142.23 85.751 142.496 85.7525C142.67 85.7503 142.842 85.7824 143.003 85.847C143.164 85.9116 143.31 86.0073 143.434 86.1287C143.558 86.2502 143.656 86.3949 143.724 86.5545C143.791 86.7142 143.827 86.8856 143.828 87.059Z" fill="white"/>
<path d="M141.726 87.7792C141.872 87.9324 142.06 88.0387 142.266 88.0845C142.473 88.1302 142.688 88.1134 142.885 88.0361C143.082 87.9587 143.251 87.8245 143.372 87.6504C143.492 87.4764 143.557 87.2705 143.56 87.059C143.56 86.807 143.464 86.5643 143.292 86.3806C142.74 86.8127 142.217 87.2799 141.726 87.7792Z" fill="#333333"/>
<path d="M149.045 87.059C149.05 87.3234 148.977 87.5832 148.833 87.8055C148.69 88.0277 148.484 88.2023 148.241 88.307C147.998 88.4116 147.73 88.4416 147.47 88.3931C147.21 88.3446 146.97 88.2198 146.782 88.0346C146.593 87.8494 146.464 87.6122 146.41 87.3533C146.357 87.0943 146.381 86.8253 146.481 86.5805C146.581 86.3358 146.752 86.1263 146.972 85.9788C147.191 85.8314 147.449 85.7526 147.714 85.7525C147.887 85.7503 148.059 85.7824 148.22 85.847C148.381 85.9116 148.528 86.0073 148.651 86.1287C148.775 86.2502 148.874 86.3949 148.941 86.5545C149.009 86.7142 149.044 86.8856 149.045 87.059Z" fill="white"/>
<path d="M146.943 87.7792C147.09 87.9312 147.279 88.0364 147.486 88.0815C147.692 88.1266 147.907 88.1096 148.104 88.0326C148.301 87.9556 148.471 87.8221 148.592 87.6488C148.714 87.4756 148.781 87.2704 148.786 87.059C148.783 86.8076 148.688 86.5661 148.518 86.3806C147.962 86.8106 147.436 87.2779 146.943 87.7792Z" fill="#333333"/>
<path d="M154.263 87.059C154.268 87.3234 154.194 87.5832 154.051 87.8055C153.907 88.0277 153.701 88.2023 153.458 88.307C153.216 88.4116 152.947 88.4416 152.687 88.3931C152.427 88.3446 152.188 88.2198 151.999 88.0346C151.81 87.8494 151.681 87.6122 151.627 87.3533C151.574 87.0943 151.599 86.8253 151.699 86.5805C151.799 86.3358 151.969 86.1263 152.189 85.9788C152.408 85.8314 152.667 85.7526 152.931 85.7525C153.105 85.7503 153.277 85.7824 153.438 85.847C153.598 85.9116 153.745 86.0073 153.869 86.1287C153.993 86.2502 154.091 86.3949 154.159 86.5545C154.226 86.7142 154.262 86.8856 154.263 87.059Z" fill="white"/>
<path d="M152.136 87.7792C152.236 87.8821 152.356 87.964 152.488 88.0201C152.62 88.0762 152.763 88.1053 152.906 88.1058C153.045 88.108 153.184 88.0826 153.313 88.0311C153.443 87.9796 153.561 87.903 153.66 87.8057C153.76 87.7083 153.839 87.5923 153.894 87.4641C153.948 87.3359 153.977 87.1983 153.978 87.059C153.975 86.8076 153.88 86.5661 153.71 86.3806C153.156 86.8128 152.63 87.2799 152.136 87.7792Z" fill="#333333"/>
<path d="M159.48 87.059C159.485 87.3234 159.411 87.5832 159.268 87.8055C159.125 88.0277 158.919 88.2023 158.676 88.307C158.433 88.4116 158.164 88.4416 157.904 88.3931C157.645 88.3446 157.405 88.2198 157.216 88.0346C157.027 87.8494 156.898 87.6122 156.845 87.3533C156.791 87.0943 156.816 86.8253 156.916 86.5805C157.016 86.3358 157.187 86.1263 157.406 85.9788C157.626 85.8314 157.884 85.7526 158.148 85.7525C158.322 85.7503 158.494 85.7824 158.655 85.847C158.816 85.9116 158.962 86.0073 159.086 86.1287C159.21 86.2502 159.308 86.3949 159.376 86.5545C159.444 86.7142 159.479 86.8856 159.48 87.059Z" fill="white"/>
<path d="M157.386 87.7792C157.532 87.9324 157.72 88.0387 157.927 88.0845C158.133 88.1302 158.349 88.1134 158.546 88.0361C158.743 87.9587 158.912 87.8245 159.032 87.6504C159.152 87.4764 159.218 87.2705 159.221 87.059C159.218 86.8076 159.122 86.5661 158.953 86.3806C158.399 86.8106 157.876 87.2779 157.386 87.7792Z" fill="#333333"/>
<path d="M164.698 87.059C164.704 87.3253 164.631 87.5876 164.488 87.8123C164.345 88.037 164.138 88.214 163.894 88.3206C163.65 88.4271 163.379 88.4585 163.117 88.4106C162.855 88.3628 162.613 88.2379 162.423 88.0519C162.232 87.8659 162.101 87.6273 162.046 87.3665C161.992 87.1057 162.016 86.8346 162.117 86.5878C162.217 86.341 162.389 86.1297 162.61 85.9809C162.831 85.8321 163.091 85.7526 163.358 85.7525C163.531 85.7503 163.704 85.7824 163.865 85.8468C164.027 85.9113 164.174 86.0069 164.298 86.1282C164.423 86.2495 164.522 86.3942 164.59 86.5539C164.659 86.7136 164.695 86.8852 164.698 87.059Z" fill="white"/>
<path d="M162.604 87.7792C162.75 87.9324 162.938 88.0387 163.144 88.0845C163.351 88.1302 163.566 88.1134 163.763 88.0361C163.96 87.9587 164.13 87.8245 164.25 87.6504C164.37 87.4764 164.435 87.2705 164.438 87.059C164.435 86.8076 164.34 86.5661 164.17 86.3806C163.619 86.8127 163.095 87.2799 162.604 87.7792Z" fill="#333333"/>
<path d="M112.507 95.3582C112.514 95.6229 112.441 95.8836 112.299 96.1069C112.157 96.3303 111.951 96.5061 111.709 96.6121C111.466 96.718 111.197 96.7492 110.937 96.7017C110.676 96.6541 110.436 96.53 110.246 96.3452C110.057 96.1604 109.927 95.9232 109.872 95.6641C109.818 95.4049 109.843 95.1355 109.942 94.8902C110.042 94.6449 110.213 94.435 110.432 94.2871C110.652 94.1393 110.911 94.0603 111.175 94.0602C111.348 94.058 111.519 94.0898 111.68 94.1538C111.84 94.2178 111.986 94.3129 112.11 94.4334C112.234 94.5539 112.332 94.6976 112.4 94.8563C112.469 95.015 112.505 95.1856 112.507 95.3582Z" fill="white"/>
<path d="M110.413 96.0868C110.511 96.1903 110.63 96.2726 110.761 96.3288C110.892 96.3849 111.033 96.4137 111.175 96.4134C111.315 96.4145 111.454 96.3881 111.583 96.3357C111.713 96.2832 111.83 96.2058 111.93 96.1078C112.029 96.0098 112.109 95.8932 112.163 95.7646C112.218 95.636 112.246 95.4979 112.247 95.3582C112.243 95.1097 112.147 94.8715 111.979 94.6882C111.428 95.1204 110.905 95.5875 110.413 96.0868Z" fill="#333333"/>
<path d="M117.733 95.3582C117.741 95.6252 117.669 95.8886 117.527 96.1146C117.384 96.3406 117.178 96.5188 116.933 96.6265C116.689 96.7341 116.418 96.7662 116.155 96.7186C115.892 96.6711 115.649 96.546 115.458 96.3595C115.267 96.1731 115.136 95.9337 115.081 95.6721C115.027 95.4106 115.052 95.1388 115.154 94.8916C115.255 94.6445 115.428 94.4333 115.65 94.2851C115.873 94.137 116.134 94.0586 116.401 94.0602C116.574 94.058 116.745 94.0898 116.906 94.1538C117.066 94.2178 117.212 94.3129 117.336 94.4334C117.459 94.5539 117.558 94.6976 117.626 94.8563C117.694 95.015 117.731 95.1856 117.733 95.3582Z" fill="white"/>
<path d="M115.631 96.0868C115.777 96.2405 115.966 96.347 116.173 96.3925C116.38 96.4379 116.597 96.4204 116.794 96.342C116.991 96.2637 117.16 96.1281 117.28 95.9528C117.399 95.7775 117.464 95.5704 117.465 95.3582C117.464 95.1089 117.368 94.8693 117.197 94.6882C116.645 95.1204 116.122 95.5875 115.631 96.0868Z" fill="#333333"/>
<path d="M122.95 95.3582C122.957 95.6229 122.884 95.8836 122.742 96.1069C122.6 96.3303 122.394 96.5061 122.152 96.6121C121.909 96.718 121.64 96.7492 121.38 96.7017C121.119 96.6541 120.879 96.53 120.689 96.3452C120.5 96.1604 120.37 95.9232 120.316 95.6641C120.261 95.4049 120.286 95.1355 120.385 94.8902C120.485 94.6449 120.656 94.435 120.875 94.2871C121.095 94.1393 121.354 94.0603 121.618 94.0602C121.791 94.058 121.963 94.0898 122.123 94.1538C122.283 94.2178 122.43 94.3129 122.553 94.4334C122.677 94.5539 122.775 94.6976 122.844 94.8563C122.912 95.015 122.948 95.1856 122.95 95.3582Z" fill="white"/>
<path d="M120.848 96.0868C120.996 96.2393 121.185 96.3446 121.392 96.3894C121.6 96.4342 121.816 96.4165 122.013 96.3385C122.21 96.2605 122.38 96.1257 122.501 95.9512C122.621 95.7767 122.687 95.5703 122.691 95.3582C122.686 95.1097 122.59 94.8715 122.423 94.6882C121.867 95.1182 121.341 95.5855 120.848 96.0868Z" fill="#333333"/>
<path d="M128.167 95.3582C128.174 95.6229 128.102 95.8836 127.959 96.1069C127.817 96.3303 127.612 96.5061 127.369 96.6121C127.126 96.718 126.858 96.7492 126.597 96.7017C126.337 96.6541 126.096 96.53 125.907 96.3452C125.717 96.1604 125.587 95.9232 125.533 95.6641C125.479 95.4049 125.503 95.1355 125.603 94.8902C125.702 94.6449 125.873 94.435 126.093 94.2871C126.312 94.1393 126.571 94.0603 126.836 94.0602C127.008 94.058 127.18 94.0898 127.34 94.1538C127.501 94.2178 127.647 94.3129 127.77 94.4334C127.894 94.5539 127.993 94.6976 128.061 94.8563C128.129 95.015 128.165 95.1856 128.167 95.3582Z" fill="white"/>
<path d="M126.065 96.0868C126.166 96.1897 126.285 96.2716 126.418 96.3277C126.55 96.3838 126.692 96.4129 126.836 96.4134C126.976 96.4145 127.114 96.3881 127.244 96.3357C127.373 96.2832 127.491 96.2058 127.59 96.1078C127.69 96.0098 127.769 95.8932 127.824 95.7646C127.878 95.636 127.907 95.4979 127.908 95.3582C127.903 95.1097 127.808 94.8715 127.64 94.6882C127.086 95.1204 126.56 95.5875 126.065 96.0868Z" fill="#333333"/>
<path d="M133.385 95.3582C133.392 95.6229 133.319 95.8836 133.177 96.1069C133.035 96.3303 132.829 96.5061 132.587 96.6121C132.344 96.718 132.075 96.7492 131.815 96.7017C131.554 96.6541 131.314 96.53 131.124 96.3452C130.935 96.1604 130.804 95.9232 130.75 95.6641C130.696 95.4049 130.721 95.1355 130.82 94.8902C130.92 94.6449 131.091 94.435 131.31 94.2871C131.53 94.1393 131.789 94.0603 132.053 94.0602C132.226 94.058 132.397 94.0898 132.558 94.1538C132.718 94.2178 132.864 94.3129 132.988 94.4334C133.112 94.5539 133.21 94.6976 133.278 94.8563C133.347 95.015 133.383 95.1856 133.385 95.3582Z" fill="white"/>
<path d="M131.291 96.0868C131.389 96.1903 131.508 96.2726 131.639 96.3288C131.77 96.3849 131.911 96.4137 132.053 96.4134C132.193 96.4145 132.332 96.3881 132.461 96.3357C132.59 96.2832 132.708 96.2058 132.808 96.1078C132.907 96.0098 132.987 95.8932 133.041 95.7646C133.096 95.636 133.124 95.4979 133.125 95.3582C133.12 95.1097 133.025 94.8715 132.857 94.6882C132.304 95.1182 131.781 95.5855 131.291 96.0868Z" fill="#333333"/>
<path d="M138.611 95.3582C138.619 95.6249 138.548 95.8879 138.405 96.1137C138.263 96.3395 138.057 96.5178 137.813 96.6256C137.569 96.7335 137.299 96.7661 137.036 96.7192C136.773 96.6723 136.531 96.5481 136.339 96.3625C136.147 96.1769 136.016 95.9383 135.96 95.6773C135.905 95.4163 135.929 95.1448 136.029 94.8975C136.129 94.6502 136.301 94.4384 136.522 94.2892C136.743 94.1401 137.004 94.0603 137.271 94.0602C137.62 94.0557 137.957 94.1897 138.208 94.4329C138.459 94.6761 138.604 95.0087 138.611 95.3582Z" fill="white"/>
<path d="M136.509 96.0868C136.607 96.1903 136.725 96.2726 136.856 96.3288C136.987 96.3849 137.128 96.4137 137.271 96.4134C137.411 96.4145 137.549 96.3881 137.679 96.3357C137.808 96.2832 137.926 96.2058 138.025 96.1078C138.125 96.0098 138.204 95.8932 138.259 95.7646C138.313 95.636 138.342 95.4979 138.343 95.3582C138.338 95.1097 138.243 94.8715 138.075 94.6882C137.523 95.1204 137 95.5875 136.509 96.0868Z" fill="#333333"/>
<path d="M143.828 95.3582C143.836 95.6252 143.765 95.8886 143.622 96.1146C143.48 96.3406 143.273 96.5188 143.029 96.6265C142.784 96.7341 142.513 96.7662 142.25 96.7186C141.987 96.6711 141.745 96.546 141.554 96.3595C141.362 96.1731 141.231 95.9337 141.177 95.6721C141.123 95.4106 141.148 95.1388 141.249 94.8916C141.351 94.6445 141.523 94.4333 141.746 94.2851C141.968 94.137 142.229 94.0586 142.497 94.0602C142.669 94.058 142.841 94.0898 143.001 94.1538C143.161 94.2178 143.308 94.3129 143.431 94.4334C143.555 94.5539 143.654 94.6976 143.722 94.8563C143.79 95.015 143.826 95.1856 143.828 95.3582Z" fill="white"/>
<path d="M141.726 96.0868C141.872 96.2405 142.061 96.347 142.268 96.3925C142.476 96.4379 142.692 96.4204 142.889 96.342C143.086 96.2637 143.255 96.1281 143.375 95.9528C143.495 95.7775 143.559 95.5704 143.56 95.3582C143.559 95.1089 143.463 94.8693 143.292 94.6882C142.74 95.1204 142.217 95.5875 141.726 96.0868Z" fill="#333333"/>
<path d="M149.045 95.3582C149.052 95.6229 148.98 95.8836 148.837 96.1069C148.695 96.3303 148.49 96.5061 148.247 96.6121C148.004 96.718 147.736 96.7492 147.475 96.7017C147.215 96.6541 146.974 96.53 146.785 96.3452C146.595 96.1604 146.465 95.9232 146.411 95.6641C146.357 95.4049 146.381 95.1355 146.481 94.8902C146.58 94.6449 146.751 94.435 146.971 94.2871C147.19 94.1393 147.449 94.0603 147.714 94.0602C147.886 94.058 148.058 94.0898 148.218 94.1538C148.379 94.2178 148.525 94.3129 148.648 94.4334C148.772 94.5539 148.871 94.6976 148.939 94.8563C149.007 95.015 149.043 95.1856 149.045 95.3582Z" fill="white"/>
<path d="M146.943 96.0868C147.091 96.2393 147.28 96.3446 147.488 96.3894C147.695 96.4342 147.911 96.4165 148.108 96.3385C148.305 96.2605 148.475 96.1257 148.596 95.9512C148.716 95.7767 148.783 95.5703 148.786 95.3582C148.781 95.1097 148.686 94.8715 148.518 94.6882C147.962 95.1182 147.436 95.5855 146.943 96.0868Z" fill="#333333"/>
<path d="M154.263 95.3582C154.269 95.6229 154.197 95.8836 154.055 96.1069C153.913 96.3303 153.707 96.5061 153.464 96.6121C153.222 96.718 152.953 96.7492 152.693 96.7017C152.432 96.6541 152.192 96.53 152.002 96.3452C151.813 96.1604 151.682 95.9232 151.628 95.6641C151.574 95.4049 151.598 95.1355 151.698 94.8902C151.798 94.6449 151.968 94.435 152.188 94.2871C152.408 94.1393 152.666 94.0603 152.931 94.0602C153.104 94.058 153.275 94.0898 153.436 94.1538C153.596 94.2178 153.742 94.3129 153.866 94.4334C153.99 94.5539 154.088 94.6976 154.156 94.8563C154.224 95.015 154.261 95.1856 154.263 95.3582Z" fill="white"/>
<path d="M152.136 96.0868C152.236 96.1897 152.356 96.2716 152.488 96.3277C152.62 96.3838 152.763 96.4129 152.906 96.4134C153.046 96.4145 153.184 96.3881 153.314 96.3357C153.443 96.2832 153.561 96.2058 153.661 96.1078C153.76 96.0098 153.84 95.8932 153.894 95.7646C153.948 95.636 153.977 95.4979 153.978 95.3582C153.973 95.1097 153.878 94.8715 153.71 94.6882C153.156 95.1204 152.63 95.5875 152.136 96.0868Z" fill="#333333"/>
<path d="M159.48 95.3582C159.487 95.6229 159.414 95.8836 159.272 96.1069C159.13 96.3303 158.924 96.5061 158.682 96.6121C158.439 96.718 158.17 96.7492 157.91 96.7017C157.649 96.6541 157.409 96.53 157.219 96.3452C157.03 96.1604 156.9 95.9232 156.846 95.6641C156.791 95.4049 156.816 95.1355 156.915 94.8902C157.015 94.6449 157.186 94.435 157.405 94.2871C157.625 94.1393 157.884 94.0603 158.149 94.0602C158.321 94.058 158.493 94.0898 158.653 94.1538C158.813 94.2178 158.96 94.3129 159.083 94.4334C159.207 94.5539 159.306 94.6976 159.374 94.8563C159.442 95.015 159.478 95.1856 159.48 95.3582Z" fill="white"/>
<path d="M157.386 96.0868C157.485 96.1903 157.603 96.2726 157.734 96.3288C157.865 96.3849 158.006 96.4137 158.149 96.4134C158.288 96.4145 158.427 96.3881 158.556 96.3357C158.686 96.2832 158.804 96.2058 158.903 96.1078C159.003 96.0098 159.082 95.8932 159.136 95.7646C159.191 95.636 159.219 95.4979 159.221 95.3582C159.216 95.1097 159.12 94.8715 158.953 94.6882C158.399 95.1182 157.876 95.5855 157.386 96.0868Z" fill="#333333"/>
<path d="M164.698 95.3582C164.706 95.6249 164.635 95.8879 164.493 96.1137C164.351 96.3395 164.144 96.5178 163.9 96.6256C163.656 96.7335 163.386 96.7661 163.123 96.7192C162.86 96.6723 162.618 96.5481 162.426 96.3625C162.235 96.1769 162.103 95.9383 162.048 95.6773C161.992 95.4163 162.016 95.1448 162.116 94.8975C162.216 94.6502 162.388 94.4384 162.609 94.2892C162.83 94.1401 163.091 94.0603 163.358 94.0602C163.707 94.0557 164.044 94.1897 164.296 94.4329C164.547 94.6761 164.691 95.0087 164.698 95.3582Z" fill="white"/>
<path d="M162.604 96.0868C162.702 96.1903 162.82 96.2726 162.951 96.3288C163.082 96.3849 163.224 96.4137 163.366 96.4134C163.506 96.4145 163.644 96.3881 163.774 96.3357C163.903 96.2832 164.021 96.2058 164.121 96.1078C164.22 96.0098 164.299 95.8932 164.354 95.7646C164.408 95.636 164.437 95.4979 164.438 95.3582C164.433 95.1097 164.338 94.8715 164.17 94.6882C163.619 95.1204 163.095 95.5875 162.604 96.0868Z" fill="#333333"/>
<path d="M103.069 80.6188H62.6946C61.8176 80.619 60.9756 80.2753 60.3493 79.6615C59.7229 79.0477 59.3623 78.2128 59.3447 77.336V58.7108C59.3447 46.0065 69.9051 35.6638 82.8858 35.6638C95.8665 35.6638 106.435 46.0065 106.435 58.7108V77.336C106.418 78.2157 106.055 79.0531 105.425 79.6674C104.795 80.2816 103.949 80.6234 103.069 80.6188ZM66.0444 74.0866H99.7104V58.7108C99.7104 54.2464 97.937 49.9649 94.7802 46.8081C91.6234 43.6513 87.3418 41.8778 82.8774 41.8778C78.413 41.8778 74.1315 43.6513 70.9747 46.8081C67.8179 49.9649 66.0444 54.2464 66.0444 58.7108V74.0866Z" fill="white" stroke="#333333" stroke-linecap="round" stroke-linejoin="round"/>
<path d="M108.244 71.6414H56.8408V114.168H108.244V71.6414Z" fill="#2F98D7" stroke="#333333" stroke-linecap="round" stroke-linejoin="round"/>
<path d="M87.8939 89.3033C87.8379 87.856 87.2236 86.4866 86.1798 85.4824C85.136 84.4782 83.7439 83.9172 82.2955 83.9172C80.847 83.9172 79.4549 84.4782 78.4111 85.4824C77.3673 86.4866 76.753 87.856 76.697 89.3033C76.7016 90.2987 76.9777 91.2741 77.4957 92.1241C78.0137 92.9742 78.7539 93.6667 79.6365 94.1271L78.6986 103.783H85.8924L84.9544 94.1271C85.837 93.6667 86.5772 92.9742 87.0952 92.1241C87.6132 91.2741 87.8894 90.2987 87.8939 89.3033Z" fill="#333333" stroke="#333333" stroke-linecap="round" stroke-linejoin="round"/>
</g>
</svg>
