<svg width="24" height="24" viewBox="0 0 24 24" fill="none" xmlns="http://www.w3.org/2000/svg">
<g clip-path="url(#clip0_11_448)">
<path d="M12 9.414V11C12 11.553 12.447 12 13 12H14.586C15.654 12 16.658 11.584 17.414 10.828L23.121 5.121C24.291 3.951 24.291 2.049 23.121 0.879C21.951 -0.291 20.049 -0.291 18.879 0.879L13.172 6.586C12.416 7.342 12 8.346 12 9.414ZM14 9.414C14 8.88 14.208 8.378 14.586 8L20.293 2.293C20.684 1.902 21.316 1.902 21.707 2.293C22.098 2.684 22.097 3.317 21.707 3.707L16 9.414C15.622 9.792 15.12 10 14.586 10H14V9.414ZM21 17H20V14C20 13.447 19.553 13 19 13C18.447 13 18 13.447 18 14V17H13C11.346 17 10 18.346 10 20V20.5C10 21.327 9.327 22 8.5 22C7.673 22 7 21.327 7 20.5V3.5C7 2.961 6.867 2.456 6.649 2H14C14.553 2 15 1.553 15 1C15 0.447 14.553 0 14 0H3.5C1.57 0 0 1.57 0 3.5V4C0 5.654 1.346 7 3 7H5V20.5C5 22.43 6.569 23.999 8.498 24H20.5C22.43 24 24 22.43 24 20.5V20C24 18.346 22.654 17 21 17ZM5 5H3C2.448 5 2 4.552 2 4V3.5C2 2.673 2.673 2 3.5 2C4.327 2 5 2.673 5 3.5V5ZM22 20.5C22 21.327 21.327 22 20.5 22H11.662C11.879 21.545 12 21.036 12 20.5V20C12 19.448 12.448 19 13 19H21C21.552 19 22 19.448 22 20V20.5Z" fill="black"/>
</g>
<defs>
<clipPath id="clip0_11_448">
<rect width="24" height="24" fill="white"/>
</clipPath>
</defs>
</svg>
