<svg width="24" height="24" viewBox="0 0 24 24" fill="none" xmlns="http://www.w3.org/2000/svg">
<g clip-path="url(#clip0_10_288)">
<path d="M16.5 16V16.5H17H20.5C22.1539 16.5 23.5 17.8461 23.5 19.5V20.5C23.5 22.1539 22.1539 23.5 20.5 23.5H3.5C1.84614 23.5 0.5 22.1539 0.5 20.5V16.5C0.5 14.8461 1.84614 13.5 3.5 13.5H7H7.5V13V12.5C7.5 10.8461 8.84614 9.5 10.5 9.5H13.5C15.1539 9.5 16.5 10.8461 16.5 12.5V16ZM15 22.5H15.5V22V12.5C15.5 11.3969 14.6031 10.5 13.5 10.5H10.5C9.39686 10.5 8.5 11.3969 8.5 12.5V22V22.5H9H15ZM7.5 15V14.5H7H3.5C2.39686 14.5 1.5 15.3969 1.5 16.5V20.5C1.5 21.6031 2.39686 22.5 3.5 22.5H7H7.5V22V15ZM16.5 22V22.5H17H20.5C21.6031 22.5 22.5 21.6031 22.5 20.5V19.5C22.5 18.3969 21.6031 17.5 20.5 17.5H17H16.5V18V22ZM8.5099 3.0306L8.51048 3.02902C8.5343 2.96401 8.59682 2.92 8.667 2.92H10.668H11.0206L11.139 2.58782L11.8455 0.60509C11.8701 0.541466 11.9314 0.499001 12.001 0.499001C12.0706 0.499001 12.1319 0.541467 12.1565 0.605092L12.863 2.58782L12.9814 2.92H13.334H15.335C15.4048 2.92 15.4673 2.96361 15.4913 3.02944L15.9237 2.87162L15.4913 3.02945C15.5147 3.09345 15.4965 3.16672 15.4434 3.21323L13.8712 4.49439L13.6048 4.71143L13.7119 5.03789L14.3639 7.02489L14.3643 7.02605C14.3869 7.09423 14.3638 7.16786 14.3082 7.21062C14.2513 7.25441 14.1737 7.25713 14.1147 7.21888C14.1146 7.21884 14.1145 7.21879 14.1144 7.21874L12.2789 6.02305L12.0023 5.84285L11.7279 6.02647L9.92291 7.23447L9.9228 7.23455C9.89443 7.25354 9.86154 7.263 9.83 7.263C9.7951 7.263 9.75948 7.25184 9.72933 7.2295C9.67309 7.18713 9.6495 7.11421 9.67093 7.04614L9.67134 7.04483L10.2983 5.03383L10.3991 4.7108L10.1366 4.49721L8.55708 3.21165C8.50419 3.1648 8.48716 3.09202 8.5099 3.0306Z" fill="black" stroke="black"/>
</g>
<defs>
<clipPath id="clip0_10_288">
<rect width="24" height="24" fill="white"/>
</clipPath>
</defs>
</svg>
